<svg height="800" viewBox="0 0 800 800" width="800" xmlns="http://www.w3.org/2000/svg" xmlns:xlink="http://www.w3.org/1999/xlink"><clipPath id="a"><path d="m0 600h600v-600h-600z"/></clipPath><clipPath id="b"><path d="m0 600h600v-600h-600z"/></clipPath><clipPath id="c"><path d="m103 102.493h394.595v59.507h-394.595z"/></clipPath><clipPath id="d"><path d="m0 600h600v-600h-600z"/></clipPath><g transform="matrix(1.3333333 0 0 -1.3333333 0 800)"><g clip-path="url(#a)"><path d="m0 0c-77.729 0-150.806 30.27-205.768 85.232-54.963 54.963-85.232 128.039-85.232 205.768s30.269 150.806 85.232 205.769c54.962 54.962 128.039 85.231 205.768 85.231s150.805-30.269 205.768-85.231c54.963-54.963 85.232-128.04 85.232-205.769s-30.269-150.805-85.232-205.768c-54.963-54.962-128.039-85.232-205.768-85.232" fill="#fff" transform="translate(299.8218 8.8916)"/><path d="m0 0c-162.648 0-294.5-131.853-294.5-294.5 0-162.648 131.852-294.5 294.5-294.5s294.5 131.852 294.5 294.5c0 162.647-131.852 294.5-294.5 294.5m0-7c38.815 0 76.466-7.601 111.906-22.59 34.234-14.48 64.981-35.211 91.387-61.617s47.137-57.153 61.617-91.387c14.99-35.44 22.59-73.091 22.59-111.906 0-38.816-7.6-76.466-22.59-111.906-14.48-34.234-35.211-64.981-61.617-91.387s-57.153-47.137-91.387-61.617c-35.44-14.99-73.091-22.59-111.906-22.59s-76.466 7.6-111.906 22.59c-34.234 14.48-64.981 35.211-91.387 61.617s-47.137 57.153-61.617 91.387c-14.989 35.44-22.59 73.09-22.59 111.906 0 38.815 7.601 76.466 22.59 111.906 14.48 34.234 35.211 64.981 61.617 91.387s57.153 47.137 91.387 61.617c35.44 14.989 73.091 22.59 111.906 22.59" transform="translate(299.8218 594.3921)"/><path d="m0 0c-156.147 0-282.729-126.582-282.729-282.729s126.582-282.729 282.729-282.729 282.729 126.582 282.729 282.729-126.582 282.729-282.729 282.729m0-2c37.899 0 74.663-7.422 109.271-22.06 33.43-14.139 63.453-34.381 89.235-60.164 25.782-25.782 46.024-55.804 60.163-89.233 14.639-34.609 22.06-71.373 22.06-109.272s-7.421-74.664-22.06-109.272c-14.139-33.429-34.381-63.452-60.163-89.234s-55.805-46.024-89.235-60.163c-34.608-14.639-71.372-22.06-109.271-22.06s-74.664 7.421-109.272 22.06c-33.429 14.139-63.451 34.381-89.234 60.163-25.782 25.782-46.024 55.805-60.163 89.234-14.638 34.608-22.06 71.373-22.06 109.272s7.422 74.663 22.06 109.272c14.139 33.429 34.381 63.451 60.163 89.233 25.783 25.783 55.805 46.025 89.234 60.164 34.608 14.638 71.373 22.06 109.272 22.06" transform="translate(299.2734 582.0728)"/></g><g clip-path="url(#b)"><path d="m0 0c.593-.155.762-.63 1.113-1.106.755-.832 1.57-1.522 3.285-1.972 2.139-.56 5.323-.242 5.756 1.41.201.762-.531 1.339-1.35 1.667-2.391 1.238-8.887 2.444-7.921 6.129.906 3.452 8.087 4.08 10.734 3.386 1.863-.489 2.916-1.738 2.438-3.56-.138-.529-.795-.787-1.24-.671-1.016.268-1.311 1.386-2.899 1.803-1.609.421-5.602.043-6.051-1.672-.661-2.52 10.886-2.245 9.458-7.687-.794-3.028-6.06-4.204-9.279-3.361-1.312.345-5.888 2.316-5.249 4.75.15.572.527 1.062 1.205.884" transform="translate(200.0166 51.3145)"/><path d="m0 0c-.737-.802-1.261-1.248-2.458-.985-.385.086-.63.296-.622.742.31 1.411 1.74 2.307 2.572 3.336.158.211.75.866 1.465 1.673-1.212 3.562-2.404 7.724-3.945 9.588-.248.3-.316.606-.236.969.141.642.807 1.123 1.428.987 1.368-.301 2.119-1.676 2.709-2.971.251-.594.849-3.28 2.005-6.381l1.891 2.073c.815.65 3.586 4.994 5.211 4.638.62-.137 1.08-.798.935-1.461-.156-.706-1.784-2.096-2.576-2.842-1.902-1.823-6.876-7.724-8.379-9.366" transform="translate(218.8618 43.5518)"/><path d="m0 0c.446 2.545-2.669 5.447-6.661 6.146-.517.091-1.313.12-1.445-.635-.446-2.545-.651-5.112-1.51-10.141 3.455-.584 8.724-.463 9.616 4.63m-11.165-7.25c-.862.151-1.43 1.229-1.333 2.034.05.415.101.828.173 1.238.374 2.136.88 4.137 1.288 6.466.306 1.748.342 3.855.633 5.515.276 1.576 1.993 1.475 3.222 1.259 5.501-.964 10.606-3.681 9.487-10.067-1.13-6.45-9.435-7.152-13.47-6.445" transform="translate(241.1699 46.7744)"/><path d="m0 0c-.342-1.258-.84-3.866-1.038-5.365-.149-1.129-.159-2.21-.331-3.514-.128-.976-.572-2.001-1.724-1.85-.868.116-1.172.664-.963 2.249.235 1.782.805 3.76 1.057 5.672.349 2.649.467 3.717.613 4.824.123.934.038 1.962.166 2.939.084.631.613 1.289 1.329 1.194 1.716-.225 2.477-3.838 3.004-5.212.929-2.508 3.012-7.489 4.036-7.602.413-.054.527.815.673 1.922.315 2.566.476 5.13.828 7.801.138 1.043.471 2.06 1.513 1.922 1.065-.14 1.025-2.279.762-4.277-.194-1.476-.539-3.088-.593-3.5-.286-2.172-.362-4.085-.642-6.214-.186-1.411-.683-2.164-2.008-1.989-2.259.299-6.202 8.772-6.682 11" transform="translate(248.7949 47.5586)"/><path d="m0 0c-.959.09-2.188.356-3.474.478-1.156.106-2.073.168-3.116.069-.347-1.134-.526-2.349-.642-3.592-.049-.522.211-.569.604-.605 1.482-.138 2.862.283 5.391.268.806-.074 1.453-.683 1.382-1.447-.061-.654-.452-1.321-1.242-1.292-2.194.049-5.747-.324-6.641-.241-.145-.382-.218-.925-.421-3.106-.097-1.047.608-1.265 1.655-1.363 1.526-.142 4.497.352 5.74.236.894-.083 1.422-.55 1.412-1.362-.074-.807-.625-1.283-1.487-1.335-2.588-.156-4.576-.257-6.647-.064-2.42.224-3.418.844-3.141 3.832.328 3.532 1.221 7.451 1.543 10.918.092 1.002.647 1.765 1.668 1.869 2.649-.137 4.375-.011 7.123-.267 1.133-.105 2.68-.27 2.542-1.753-.11-1.178-.962-1.362-2.249-1.243" transform="translate(270.3862 48.3379)"/><path d="m0 0c-.598-.911-1.043-1.436-2.267-1.369-.394.021-.67.19-.733.633.078 1.443 1.345 2.557 2 3.707.122.234.601.976 1.177 1.887-1.771 3.321-3.619 7.237-5.441 8.827-.293.257-.409.549-.388.92.035.656.615 1.239 1.25 1.204 1.399-.077 2.362-1.313 3.153-2.496.343-.545 1.366-3.1 3.008-5.975l1.532 2.35c.699.775 2.733 5.51 4.396 5.419.634-.035 1.194-.614 1.157-1.292-.039-.721-1.422-2.355-2.083-3.219-1.584-2.107-5.541-8.733-6.761-10.596" transform="translate(278.7637 35.2705)"/><path d="m0 0c-2.145.035-1.757 2.371-2.265 4.809-.427 2-.769 5.202-1.216 5.998-2.058-4.017-2.697-11.057-4.558-11.026-1.05.018-1.304.524-1.509 1.404-.632 2.877-1.443 6.853-2.057 9.49-.386-.825-2.227-6.357-2.265-8.72-.082-1.027-.28-2.404-1.724-2.38-.788.012-1.368.656-1.355 1.489.046 1.509 1.691 5.751 2.462 8.739.397 1.503 1.14 6.833 3.241 6.799 1.466-.025 1.637-3.003 1.918-4.585.301-1.712 1.008-5.358 1.526-7.117.44 1.459 1.549 5.075 2.669 8.012.39 1.044.93 3.357 2.397 3.332.788-.012 1.191-.785 1.378-1.444.807-2.86 1.332-8.319 1.817-10.845.262-1.36.504-2.7.497-3.073-.01-.611-.344-.891-.956-.882" transform="translate(302.8936 33.6758)"/><path d="m0 0c-3.283-.101-4.71 2.157-4.82 5.745-.073 2.364.243 4.236.158 7.037-.036 1.182.043 2.894 1.443 2.937 1.314.04 1.454-1.708 1.488-2.824.075-2.43-.444-4.088-.353-7.065.077-2.54.494-3.272 2.508-3.211 1.75.054 3.041.817 3.445 2.669.576 2.647.555 4.793.468 7.638-.057 1.816.112 3.508 1.425 3.548.831.025 1.399-.614 1.422-1.379.065-2.124-.117-6.949-.38-9.805-.23-2.526-2.536-5.159-6.804-5.29" transform="translate(310.4697 33.29)"/><path d="m0 0c.612.043.927-.352 1.41-.69.985-.546 1.977-.936 3.746-.811 2.207.156 5.121 1.482 4.999 3.186-.054.787-.932 1.096-1.814 1.145-2.663.403-9.204-.542-9.473 3.26-.253 3.56 6.348 6.463 9.078 6.657 1.923.136 3.322-.71 3.455-2.588.038-.547-.5-1.001-.96-1.034-1.047-.073-1.686.892-3.325.775-1.66-.118-5.319-1.76-5.195-3.529.184-2.6 11.033 1.373 11.43-4.24.222-3.124-4.388-5.932-7.707-6.166-1.355-.096-6.323.3-6.5 2.811-.041.589.159 1.175.856 1.224" transform="translate(320.417 38.1572)"/><path d="m0 0c.186-1.874.41-3.897.637-6.184.086-.85-.269-2.161-1.574-2.291-.676-.068-.958.323-1.027 1.02-.512 5.801-.838 9.067-1.204 12.748-.173 1.722-.249 3.144 1.081 3.276 1.11.111 1.445-1.484 1.566-2.462.129-1.966.302-3.929.521-6.107" transform="translate(338.1631 43.1104)"/><path d="m0 0c1.998.254 3.282-1.173 3.445-2.454.073-.565-.41-1.287-1.039-1.367-.652-.083-.727 1.033-2.595.795-2.955-.374-7.07-4.981-6.488-9.562.195-1.543 1.844-2.193 3.3-2.009 3.019.382 4.7 2.958 6.329 3.165.565.071 1.055-.308 1.134-.938.268-2.107-4.162-4.589-6.551-4.892-3.192-.405-6.252.575-6.704 4.137-.709 5.581 3.893 12.455 9.169 13.125" transform="translate(349.7383 53.7246)"/><path d="m0 0c.148-.952-.569-2.038-1.521-2.187-.758-.118-1.521.517-1.641 1.296-.155.995.516 2.096 1.467 2.245.909.141 1.568-.533 1.695-1.354" transform="translate(359.7334 39.5664)"/><path d="m0 0c.132-1.2.326-2.612.492-3.516.191-1.033.481-2.005.698-3.188.204-1.098.077-2.346-1.301-2.6-1.076-.198-1.654.274-1.978 2.039-.338 1.831-.633 4.76-1.523 9.716-.136.733-.499 1.622-.687 2.634-.138.754.259 1.739 1.163 1.906 1.507.279 2.972-1.745 3.959-3.122.992-1.396 5.019-6.333 5.902-6.17-.239 1.293-1.307 5.883-1.794 8.53-.211 1.142-.189 2.347 1.125 2.589 1.291.24 1.922-1.849 2.295-3.873.246-1.336.45-2.811.53-3.241.365-1.981.854-3.672 1.22-5.652.29-1.573-.026-2.521-1.533-2.799-1.916-.353-6.541 4.205-8.568 6.747" transform="translate(364.1611 47.6738)"/><path d="m0 0c-.855-.191-1.999-.292-3.195-.56-.898-.2-1.667-.372-2.446-.704.045-1 .223-1.991.448-2.995.023-.106.109-.088.237-.059 1.175.262 3.538 1.532 4.627 1.775.961.216 1.943-.26 2.148-1.179.172-.768-.068-1.697-1.014-1.976-1.847-.571-4.807-1.883-5.491-2.037.035-.352.16-.907.502-2.445.14-.62.667-.569 1.371-.411 1.261.281 3.715 1.549 4.997 1.836 1.046.234 1.883-.095 2.098-1.056.225-1.003-.214-1.752-1.163-2.123-2.242-.905-3.963-1.536-5.907-1.972-2.456-.549-3.645-.255-4.327 2.801-.714 3.183-1.057 6.919-1.76 10.059-.248 1.112.039 2.231 1.152 2.569 2.286.714 3.828 1.239 6.435 1.822 1.197.268 2.847.615 3.234-1.115.31-1.388-.536-1.915-1.946-2.23" transform="translate(383.4541 55.7441)"/><path d="m0 0c.21-.625.456-1.465.685-2.334.839-3.176 1.301-5.094 1.679-7.214.185-1.038.406-2.474-1.118-2.879-1.483-.391-1.786.412-2.066 1.472-.408 1.545-.599 3.126-1.087 4.968-.28 1.058-1.085 3.678-1.513 5.129.012-.133-2.1-.714-2.799-.899-.847-.224-1.876.07-2.135 1.044-.306 1.165.936 1.947 1.954 2.216.953.252 2.393.542 4.172 1.012 1.588.42 2.727 1.083 4.103 1.447.996.263 2.219.519 2.577-.836.432-1.631-1.44-2.262-2.712-2.599-.57-.151-1.116-.316-1.74-.527" transform="translate(394.4844 58.0791)"/><path d="m0 0c-1.339-.56-1.648-.809-1.967-1.658-.653-1.734-.448-3.346.925-4.657 1.065-1.017 2.186-1.987 3.35-2.89 4.567-3.543 9.595-6.327 14.869-8.64 3.225-1.414 6.549-2.618 9.874-3.785 3.129-1.098 6.287-2.136 9.485-3.006 16.05-4.365 32.457-6.319 49.025-7.238 10.985-.609 21.923-.07 32.831 1.146 8.76.978 17.399 2.674 25.868 5.157 6.031 1.766 11.915 3.926 17.562 6.701 2.345 1.152 4.44 2.629 6.081 4.698.725.913 1.107 1.918.893 3.085-.197 1.074-.708 1.415-1.837 1.415-.423-.953-.674-1.941-1.233-2.7-1.389-1.882-3.218-3.307-5.205-4.538-5.3-3.283-11.105-5.335-17.072-6.967-13.091-3.581-26.486-5.133-39.997-5.691-12.863-.533-25.716-.355-38.524 1.235-7.437.924-14.805 2.177-22.118 3.803-5.723 1.272-11.262 3.145-16.825 4.953-6.506 2.114-12.639 4.999-18.383 8.704-2.58 1.664-4.907 3.642-7.04 5.852-.876.908-1.3 1.867-.78 3.143.199.491.136 1.088.218 1.878m169.691 98.499c-.146.5-.158.724-.266.882-.625.913-1.216 1.856-1.921 2.704-4.184 5.04-9.536 7.316-16.076 6.619-5.041-.537-9.461-2.63-13.221-5.928-10.323-9.054-15.389-20.53-15.14-34.251.087-4.788 1.248-9.399 3.579-13.647 4.622-8.426 13.291-11.78 22.363-8.655.406.14.776.385 1.405.703-1.506.777-2.714 1.326-4.148 1.169-.73-.079-1.484-.162-2.204-.068-4.818.626-9.156 2.402-12.842 5.612-.58.504-1.04 1.182-1.434 1.852-.29.493-.349 1.096.317 1.566.876-.688 1.688-1.435 2.606-2.018.94-.596 1.928-1.177 3.145-1.213-.415.65-.924 1.159-1.427 1.675-4.181 4.291-6.565 9.478-6.925 15.399-.468 7.69 2.051 14.444 7.494 19.963 1.544 1.565 3.427 2.792 5.095 4.241 2.58 2.243 5.587 3.547 8.895 4.225 3.017.618 6.074.635 9.134.56.554-.014 1.109-.002 2.019-.002-.936 1.011-1.873 1.166-2.746 1.399-3.691.986-7.332.512-10.919-.522-4.069-1.174-7.608-3.333-10.82-6.06-.49-.416-1.018-.787-1.53-1.179-.104.103-.21.207-.314.31.38.584.69 1.234 1.153 1.743 5.568 6.123 12.474 9.247 20.776 8.91 3.639-.148 6.957-1.443 9.365-4.309 1.233-1.467 2.744-1.492 4.587-1.68m-153.664-133.864c.329-.246.44-.372.579-.424.345-.129.697-.244 1.055-.33 5.506-1.313 10.514-3.687 15.12-6.966 5.163-3.675 10.17-7.52 14.289-12.395 3.416-4.041 6.603-8.223 8.279-13.346.09-.276.322-.506.519-.803.254.129.487.175.603.317 8.758 10.811 17.299 21.789 25.33 33.155.2.284.292.646.535 1.2-.852.104-1.55.241-2.252.268-9.549.363-19.007 1.535-28.399 3.245-8.098 1.473-16.068 3.467-23.874 6.086-1.015.339-1.767.254-2.551-.554-2.677-2.761-5.42-5.459-8.13-8.189-.361-.363-.676-.772-1.103-1.264m84.166.425c-2.576 0-4.472 0-6.369-.001-1.527 0-3.056.028-4.583-.015-1.014-.027-1.209-.31-1.027-1.277.058-.31.14-.621.263-.911 1.132-2.659 2.135-5.385 3.449-7.953 2.48-4.848 5.751-9.191 9.088-13.477.749-.963 1.751-1.466 2.902-1.784 4.051-1.118 8.15-1 12.23-.349 6.774 1.081 13.136 3.414 19.145 6.709 3.805 2.086 7.41 4.474 10.418 7.626 1.373 1.438 2.533 3.084 3.737 4.676.493.651.738 1.455.263 2.225-1.739 2.828-2.64 6.087-4.605 8.806-1.192 1.649-1.119 1.695-3.028 1.219-7.577-1.894-15.26-3.228-23.022-4.009-6.495-.654-13.018-1.035-18.861-1.485m83.649 189.509c3.574.192 7.159.275 10.719.624 1.754.172 3.493.744 5.179 1.311 1.157.388 2.104 1.213 2.696 2.333 1.345 2.545.743 6.271-1.345 8.292-2.061 1.994-4.402 3.628-6.911 4.979-4.129 2.224-8.217 4.571-12.514 6.424-7.208 3.108-14.521 5.989-21.872 8.747-12.35 4.632-24.987 8.362-37.743 11.704-16.688 4.372-33.476 8.212-50.654 10.139-6.347.712-12.701 1.223-19.089 1.028-3.168-.096-6.316-.399-9.267-1.73-2.11-.952-3.516-3.179-3.294-5.464.052-.53.336-1.13.701-1.522 1.906-2.048 3.869-4.063 6.298-5.491 4.043-2.377 8.041-4.863 12.238-6.937 9.788-4.837 19.851-9.066 30.137-12.738 10.98-3.92 22.15-7.226 33.412-10.222 13.655-3.631 27.339-7.138 41.323-9.312 6.623-1.029 13.277-1.713 19.986-2.165m-219.513-11.117c.776.734 1.56.604 2.193.315 1.04-.475 2.103-1.016 2.958-1.756 1.229-1.064 2.321-2.298 3.401-3.521 2.161-2.447 2.968-5.273 2.269-8.506-.344-1.592.107-2.132 1.76-2.109 1.954.028 3.636.834 4.876 2.28 3.217 3.754 3.384 8.318 1.074 12.183-.954 1.597-2.163 2.996-3.714 4.052-1.48 1.007-2.999 1.96-4.487 2.955-.454.304-1.245.504-.965 1.233.278.721 1.056.604 1.669.476.666-.14 1.332-.345 1.951-.625.958-.435 1.933-.873 2.802-1.456 5.498-3.691 8.321-8.67 7.301-15.454-.068-.45-.085-.908-.139-1.516 1.856-.247 3.51-.32 4.822 1.066 2.718 2.872 3.672 6.314 2.596 10.079-1.008 3.526-2.647 6.778-5.761 9.028-1.324.956-2.623 1.947-3.928 2.929-.399.3-.78.624-1.204.964.705.864 1.422.542 1.985.273 1.565-.75 3.106-1.559 4.606-2.432 4.125-2.404 6.273-6.326 7.665-10.648.881-2.737.88-5.618-.326-8.365-.221-.504-.381-.989.279-1.345 1.785-.964 5.019-.547 6.359.931 1.555 1.715 2.601 3.807 2.983 6.02.458 2.665.136 5.375-1.31 7.803-2.367 3.973-5.256 7.524-8.85 10.441-4.878 3.961-10.354 5.254-16.438 3.311-1.053-.336-2.057-.397-3.087.007-3.09 1.213-5.704.274-7.94-1.912-.961-.94-1.962-1.426-3.312-1.561-3.288-.328-5.781-1.995-7.079-5.069-.601-1.422-1.507-2.143-2.922-2.573-4.154-1.265-6.479-4.425-7.862-8.268-.796-2.212-1.194-4.585-1.117-6.995.028-.889-.077-1.793-.225-2.673-.565-3.361-.413-6.719-.044-10.08.04-.361.083-.772.277-1.057 1.257-1.851 2.723-3.573 4.81-4.44 2.472-1.027 5.059-1.778 7.605-2.625.442-.147.929-.26 1.389-.238 1.616.076 3.12-.36 4.64-.824.896-.274 1.846-.449 2.78-.5 2.533-.138 4.898.583 7.175 1.624.814.373 1.588.834 2.408 1.191.323.141.721.109 1.309.185-.539-1.621-1.58-2.436-2.64-3.188-1.092-.776-2.264-1.44-3.46-2.189 2.117-.995 9.198-.179 10.661 1.202-.362.306-.759.571-1.063.917-.376.429-.761.889-.978 1.405-.141.336-.14 1.006.064 1.149.307.217.847.136 1.285.118.193-.008.391-.153.567-.266.927-.593 1.95-.707 3.027-.721 4.68-.061 8.771 1.453 12.398 4.394 1.385 1.123 2.597 2.368 3.202 4.033.663 1.825 1.129 3.722 1.653 5.596.06.216-.064.482-.102.715-.247.045-.406.121-.547.094-2.663-.511-5.247-.425-7.665.981-.587.342-.997.029-1.368-.395-.8-.913-1.873-1.332-2.995-1.672-1.649-.5-3.345-.688-4.986-.16-1.355.436-1.973-.351-1.482-1.737.087-.247.174-.517.338-.71 1.67-1.958 3.55-3.586 6.223-4.003 1.378-.214 2.588.226 3.812.76.617.269 1.245.802 2.25.268-1.676-1.821-3.313-3.37-5.771-3.676-4.202-.523-7.354 1.288-9.82 4.519-.907 1.187-.854 1.215-2.3.771-1.971-.606-3.947-.726-5.857.187-.728.348-1.225.181-1.87-.238-.82-.534-1.744-1.031-2.689-1.225-1.941-.398-3.866-.147-5.743.562-5.107 1.928-8.104 5.678-9.492 10.845-.192.715-.314 1.443.334 2.285.438-.406.906-.722 1.214-1.152.457-.64.843-1.34 1.188-2.049 1.964-4.022 5.526-5.803 9.612-6.738 2.347-.537 3.871.416 4.752 2.63.987 2.48.838 4.845-.728 7.061-1.764 2.496-3.653 4.879-6.256 6.829m-16.337-24.585c-.213-.526-.389-.843-.473-1.183-2.28-9.225-2.497-18.453-.003-27.677 1.291-4.777 3.123-9.32 6.371-13.124 2.884-3.377 6.39-5.742 10.996-6.163 3.618-.33 7.227-.776 10.834-1.221 4.553-.562 9.098-1.007 13.705-.691 5.363.368 10.738.563 16.011 1.74 1.69.377 1.722.462 1.998 2.144 1.232 7.487 2.418 14.982 3.75 22.451 1.055 5.913 2.303 11.792 3.453 17.689.136.698.195 1.412.308 2.255-.821 0-1.437.05-2.042-.007-3.619-.347-7.23-.841-10.857-1.042-3.212-.178-6.229-.97-9.194-2.118-.669-.259-1.033-.674-1.122-1.374-.095-.731-.189-1.464-.324-2.19-.481-2.592-1.013-5.165-2.164-7.574-3.536-7.402-8.466-13.683-14.92-18.765-1.565-1.233-3.283-2.091-5.221-2.505-.243-.052-.522.067-1.069.151.596.408.909.701 1.279.862 1.673.729 3.035 1.88 4.368 3.088 4.699 4.255 8.495 9.175 11.36 14.854 1.794 3.555 2.641 7.31 3.08 11.207.011.105.015.21.017.316.028 1.316-.203 1.532-1.447 1.306-.414-.075-.814-.216-1.223-.317-1.023-.253-2.033-.602-3.071-.732-6.743-.846-13.43-.832-20.034 1.13-4.911 1.46-9.483 3.503-13.395 6.876-.23.199-.517.33-.971.614m267.545-46.82c-.154.317-.188.488-.293.584-.308.284-.633.556-.973.804-12.955 9.451-27.11 16.431-42.63 20.544-6.345 1.682-12.79 2.559-19.399 2.3-4.074-.16-7.645-1.412-10.811-3.878-7.002-5.455-10.93-12.352-10.356-21.527.493-7.888 6.664-15.806 13.485-17.963 5.327-1.685 10.612-3.505 15.898-5.315 8.226-2.817 16.556-5.347 24.523-8.88.145-.064.29-.131.44-.176.553-.165.939-.006 1.05.595.057.31.076.628.1.943.239 3.036 1.127 5.879 2.439 8.619 3.251 6.789 8.617 11.809 14.14 16.622 3.303 2.878 7.199 4.959 11.426 6.303.29.092.562.246.961.425m-50.3-182.481c-.005-.159-.01-.318-.015-.476-.585-.066-1.174-.206-1.754-.181-1.579.07-3.154.259-4.733.312-4.149.136-8.281.846-12.457.176-3.12-.5-6.292-.706-9.257-1.924-2.429-1-4.302-2.44-5.109-5.177-.612-2.079-.275-3.932.342-5.863.368-1.156 1.024-2.036 2.006-2.747 7.22-5.24 15.314-7.154 24.081-6.081 4.071.499 8.106 1.368 12.118 2.251 4.931 1.087 9.347 3.31 12.997 6.831 1.735 1.673 3.283 3.555 4.814 5.425 4.001 4.889 6.804 10.334 7.907 16.639.779 4.463.615 8.827-.731 13.122-1.073 3.426-2.793 6.389-5.921 8.494-4.19 2.822-8.239 5.859-12.307 8.859-4.902 3.613-8.996 8.111-13.316 12.356-1.948 1.916-3.797 3.966-5.462 6.132-2.309 3.003-4.4 6.174-6.592 9.267-.315.445-.676.856-1.122 1.416-.37-.555-.623-.881-.817-1.239-1.038-1.917-2.364-3.607-3.923-5.128-2.158-2.107-4.537-3.928-7.064-5.569-4.546-2.953-9.477-5.102-14.637-6.649-5.93-1.778-11.986-2.885-18.237-2.244-.433.045-.877-.032-1.668-.068.546-.723.85-1.19 1.218-1.602 2.175-2.437 4.318-4.906 6.559-7.282 7.57-8.028 15.533-15.622 24.625-21.942 1.251-.87 2.602-1.597 3.895-2.409.875-.551 1.562-.417 2.425.205 1.09.788 2.342 1.403 3.602 1.891.905.352 1.932.337 3.002-.516-.52-.425-.869-.795-1.29-1.039-3.845-2.232-5.499-5.832-6.169-9.993-.348-2.165-.092-2.379 2.149-2.153 6.846.69 13.431-.54 19.906-2.629.327-.105.624-.307.935-.465m68.684 126.559c.08-.044.159-.088.239-.133-.762-.691-1.427-1.557-2.303-2.04-2.487-1.37-4.984-2.78-7.619-3.817-4.568-1.798-9.341-2.919-14.201-3.701-4.563-.735-9.101-1.056-13.656-.052-.829.183-1.411-.057-1.918-.721-2.243-2.936-4.467-5.888-5.961-9.297-1.504-3.431-2.1-7.058-2.037-10.784.035-2.117.999-3.846 2.584-5.229.636-.555 1.26-1.127 1.933-1.632 2.168-1.625 2.743-3.78 2.111-6.317-.587-2.357-.475-4.71-.025-7.057.208-1.083.419-2.188.825-3.204 1.37-3.439 4.926-5.379 8.371-4.67 1.511.31 2.701 1.193 3.754 2.234 1.114 1.102 2.202 1.351 3.693.665 2.143-.984 4.222-.721 5.976.997.678.663 1.426 1.288 1.962 2.056.99 1.416 2.241 1.643 3.864 1.431 1.599-.21 3.247-.125 4.869-.069 1.189.041 2.032.696 2.639 1.749.655 1.14 1.456 2.195 2.154 3.311 1.138 1.819 2.801 2.666 4.905 2.655 2.725-.015 4.647 1.325 5.85 3.632.873 1.673 1.61 3.443 2.178 5.243 1.793 5.67 2.007 11.494 1.422 17.37-.272 2.742-.854 5.402-2.019 7.928-1.655 3.586-3.23 7.208-4.889 10.791-.372.802-.482 1.566-.426 2.437.157 2.364.352 4.737.297 7.1-.1 4.278-.751 8.495-1.712 12.671-1.804 7.845-4.797 15.163-9.454 21.762-1.741 2.467-3.756 4.684-6.074 6.626-.807.675-1.708 1.022-2.761.974-3.988-.181-7.884-.828-11.429-2.755-2.125-1.155-4.174-2.471-6.153-3.863-1.147-.808-2.2-1.817-3.099-2.898-4.64-5.575-7.425-11.987-8.241-19.195-.423-3.739-.203-7.434.852-11.115 1.67-5.824 3.118-11.712 4.606-17.586.225-.886.646-1.432 1.495-1.62 2.105-.465 4.199-1.127 6.331-1.303 8.145-.673 15.948.993 23.493 3.942 2.584 1.009 5.052 2.314 7.574 3.484m-236.325-93.305c-.181-.066-.361-.133-.541-.199-.301.511-.666.995-.893 1.538-1.832 4.374-3.639 8.759-5.452 13.141-2.398 5.799-5.801 10.99-9.692 15.87-3.053 3.829-7.034 6.307-11.737 7.627-3.112.873-5.946.254-8.508-1.681-1.881-1.42-3.32-3.22-4.482-5.257-1.746-3.057-2.75-6.381-3.482-9.794-1.37-6.389-1.581-12.836-1.037-19.341 1.019-12.156 4.007-23.778 9.249-34.795 2.619-5.503 5.847-10.616 10.198-14.949 2.154-2.143 4.594-3.849 7.426-4.996 2.109-.853 4.242-1.148 6.497-.713 4.092.787 7.85 2.419 11.429 4.479 5.677 3.267 11.011 7.038 16.064 11.201 8.272 6.817 15.922 14.308 23.225 22.124 6.293 6.736 12.231 13.802 18.307 20.739 1.306 1.491 1.271 1.678.333 3.499-3.511 6.82-8.134 12.77-13.733 18.013-6.081 5.695-13.12 9.673-21.031 12.148-1.294.404-2.68.513-4.027.742-1.423.242-2.442-.298-3.436-1.379-6.383-6.946-12.83-13.833-19.28-20.716-.627-.669-.738-1.239-.423-2.113 1.624-4.509 3.182-9.041 4.738-13.574.175-.511.195-1.075.288-1.614m170.027 118.329c-.144.085-.352.258-.592.339-3.743 1.271-7.481 2.56-11.248 3.759-.526.168-1.235-.018-1.796-.22-1.337-.482-2.61-1.143-3.953-1.603-8.413-2.881-17.199-.695-22.908 6.178-4.18 5.032-6.043 10.932-6.4 17.348-.588 10.541 2.42 20.132 8.142 28.873 4.014 6.132 9.376 10.816 16.215 13.646 3.978 1.646 8.122 2.324 12.384 1.452 7.082-1.449 12.029-5.566 14.798-12.25.291-.702.676-1.135 1.407-1.333 1.322-.359 2.626-.787 3.948-1.147 1.079-.294 1.271-.194 1.57.908.444 1.627.823 3.272 1.237 4.906 4.229 16.719 8.683 33.368 15.519 49.266.131.305.125.668.204 1.129-.713 0-1.284.048-1.844-.007-5.066-.501-10.117-.17-15.156.309-8.296.789-16.506 2.183-24.713 3.6-15.242 2.633-30.252 6.222-45.023 10.798-14.352 4.446-28.617 9.167-42.463 15.037-8.35 3.54-16.586 7.342-23.988 12.697-.238.172-.556.235-.97.403-.314-.606-.618-1.144-.877-1.703-3.355-7.236-6.006-14.743-8.422-22.328-4.274-13.415-7.986-26.986-11.133-40.714-3.181-13.874-6.04-27.813-8.586-41.816-1.198-6.584-2.333-13.18-3.391-19.788-1.19-7.441-2.419-14.882-3.343-22.359-.982-7.946-1.717-15.927-2.389-23.908-.637-7.561-1.042-15.142-1.576-22.711-.064-.901.147-1.624.714-2.33 1.497-1.866 3.248-3.451 5.162-4.869 3.705-2.745 7.737-4.913 11.961-6.735 9.339-4.031 19.079-6.713 29.043-8.644 10.258-1.988 20.604-3.241 31.032-3.937 15.199-1.014 30.344-.775 45.419 1.562 7.776 1.205 15.43 2.935 22.83 5.666 4.81 1.774 9.452 3.892 13.744 6.736.868.576 1.118 1.194.971 2.238-.279 1.976-.551 3.986-.488 5.971.157 4.896.358 9.799.815 14.674.556 5.927 1.337 11.835 2.124 17.737.576 4.327 1.317 8.632 2.02 13.17m-161.078 26.104c-.543.083-.747.148-.948.141-5.265-.188-10.538-.264-15.793-.607-6.289-.411-12.537.228-18.797.498-2.778.12-5.557.605-8.296 1.131-4.682.898-8.467 3.381-11.508 7.018-3.663 4.383-5.892 9.475-7.185 14.981-2.07 8.814-2.121 17.657-.094 26.492.269 1.176.66 2.332 1.094 3.46.239.626.321 1.163.094 1.816-1.263 3.632-1.851 7.341-1.304 11.199.162 1.14.07 2.315.097 3.474.062 2.664.547 5.296 1.553 7.713 1.666 3.996 4.37 7.213 8.42 9.043 1.172.53 1.917 1.308 2.593 2.384 1.718 2.737 4.215 4.547 7.353 5.368 1.592.416 3.036.932 4.353 2.042 2.791 2.352 6.06 3.025 9.651 2.182.734-.172 1.553-.084 2.319.007 1.097.13 2.175.41 3.27.559 4.406.6 8.343-.804 12.032-3.008 3.237-1.932 6.02-4.451 8.458-7.31 1.706-2 3.336-4.085 4.809-6.261 1.84-2.717 2.2-5.889 2.238-9.083.009-.77-.183-1.59-.475-2.308-.833-2.042-1.453-4.2-2.918-5.932-.536-.632-.436-1.351-.415-2.098.09-3.208-.295-6.341-2.058-9.112-.699-1.1-1.641-2.047-2.49-3.049-.295-.347-.643-.649-1.042-1.047.659-.478 1.23-.243 1.763-.153 2.754.467 5.502.971 8.258 1.429.933.155 1.88.24 2.824.312 1.364.102 1.462.165 1.774 1.521 1.115 4.828 2.197 9.663 3.347 14.483 3.292 13.797 6.831 27.529 11.284 41.005 2.348 7.109 4.803 14.184 8.033 20.956.386.808.373 1.394-.223 2.143-.53.665-.968 1.547-1.074 2.38-.632 4.975 1.653 9.122 6.518 10.523 1.957.563 4.021.867 6.057 1.02 6.125.46 12.224-.08 18.298-.834 10.521-1.306 20.928-3.268 31.301-5.444 18.752-3.935 37.129-9.218 55.353-15.088 10.858-3.496 21.428-7.699 31.769-12.489 4.692-2.174 9.256-4.612 13.415-7.71 1.426-1.062 2.791-2.279 3.918-3.644.881-1.066 1.493-2.42 1.97-3.738.679-1.881-.536-6.104-1.972-7.506-.227-.221-.441-.472-.708-.629-1.83-1.077-2.759-2.854-3.647-4.658-2.497-5.076-4.343-10.413-6.106-15.769-4.14-12.575-7.548-25.362-10.78-38.196-.051-.204-.112-.406-.158-.612-.348-1.54-.284-1.713 1.151-2.252 12.288-4.62 23.467-11.223 33.983-19.006.716-.53 1.346-1.175 2.028-1.752.318-.269.634-.573 1.006-.743 3.02-1.382 5.221-3.694 7.215-6.255 3.438-4.414 5.803-9.411 7.88-14.557 2.977-7.376 4.991-14.998 5.694-22.94.294-3.317.349-6.64-.241-9.932-.166-.93.028-1.63.614-2.321 2.99-3.531 4.763-7.719 6.112-12.053.68-2.184.874-4.555 1.03-6.858.51-7.498-.915-14.684-3.759-21.612-.728-1.776-1.714-3.373-3.123-4.707-1.605-1.522-3.494-2.406-5.696-2.34-1.443.043-2.42-.465-3.143-1.663-.407-.675-.985-1.259-1.325-1.962-1.425-2.943-4.019-3.876-6.993-4.105-1.147-.088-2.324-.025-3.467.127-.831.112-1.406-.078-1.952-.69-.595-.667-1.253-1.282-1.917-1.882-2.284-2.059-4.955-2.739-7.93-2.028-1.077.258-1.894.078-2.763-.611-6.51-5.159-14.369-1.359-16.808 4.78-1.375 3.461-1.799 7.132-1.27 10.871.421 2.972 1.036 2.757-2.026 5.181-3.863 3.06-5.088 7.077-4.47 11.806.129.992.369 1.971.482 2.964.52 4.547 2.614 8.434 5.157 12.097 1.408 2.029 3.015 3.924 4.59 5.831.45.544.425 1.005.226 1.59-1.685 4.938-3.384 9.871-5.023 14.825-.96 2.902-1.825 5.836-2.715 8.762-.24.792-.549 1.389-1.476 1.643-3.658 1.005-7.293 2.098-10.939 3.148-.492.142-.999.232-1.675.387-.185-.719-.383-1.302-.483-1.902-1.832-11.027-3.462-22.081-4.341-33.231-.202-2.572-.174-5.162-.279-7.743-.036-.897.263-1.466 1.147-1.823 3.311-1.343 4.491-4.185 4.787-7.417.301-3.295-1.69-5.48-4.284-7.032-3.935-2.355-8.048-4.392-12.337-6.042-1.821-.7-3.668-1.326-5.501-1.993-1.213-.442-1.284-.621-1.034-1.864.415-2.058 1.576-3.787 2.477-5.622 4.449-9.057 10.029-17.308 17.277-24.405 3.993-3.91 7.811-8.009 12.3-11.367 1.764-1.319 3.684-2.44 5.587-3.558 1.997-1.175 4.1-2.173 6.084-3.367 2.167-1.305 3.706-3.153 4.815-5.488 2.226-4.685 3.186-9.602 2.975-14.725-.166-4.009-.777-7.956-2.447-11.689-1.925-4.304-4.191-8.344-7.235-12.004-2.518-3.028-5.164-5.827-8.444-8.014-4.436-2.956-9.401-4.454-14.591-5.343-2.131-.364-4.263-.714-6.395-1.066-8.769-1.451-17.121-.104-25.037 3.867-1.733.869-3.317 2.046-4.921 3.151-1.11.764-1.867 1.849-2.331 3.123-.127.346-.225.705-.376 1.041-1.609 3.569-.971 7.021.631 10.374 1.258 2.636 3.643 4.003 6.198 5.108.626.27 1.302.42 1.953.639.487.164.842.454.801 1.028-.242 3.391.779 6.446 2.465 9.328.075.126.069.299.124.56-.296.164-.583.384-.906.493-3.076 1.034-5.881 2.58-8.522 4.445-8.656 6.115-16.287 13.374-23.465 21.126-6.709 7.246-12.954 14.861-18.201 23.256-1.653 2.644-3.193 5.338-4.23 8.294-.185.528-.458 1.026-.807 1.796-.517-.537-.9-.863-1.197-1.255-2.835-3.737-5.645-7.494-8.484-11.229-2.422-3.187-4.826-6.39-7.32-9.521-5.617-7.051-11.152-14.173-16.963-21.06-7.55-8.946-15.508-17.534-24.052-25.552-6.774-6.356-13.874-12.329-21.467-17.687-3.795-2.679-7.79-5.063-12.094-6.84-2.329-.962-4.743-1.768-7.184-2.397-3.78-.973-7.406-.456-10.816 1.561-3.452 2.041-6.363 4.683-8.891 7.758-5.737 6.981-9.62 14.96-12.491 23.464-3.955 11.72-5.705 23.763-5.028 36.121.298 5.438 1.018 10.835 3.129 15.911.925 2.226 1.993 4.446 3.344 6.434 5.183 7.634 14.173 8.929 21.282 3.042 4.864-4.029 9.009-8.725 12.016-14.34.672-1.254 1.294-2.535 1.96-3.793.235-.445.532-.858.942-1.509 10.881 11.585 21.954 22.67 32.242 34.864-.753.363-1.245.611-1.747.838-4.412 2.006-8.891 3.878-13.222 6.047-4.492 2.25-8.423 5.36-12.351 8.495-3.265 2.606-2.949 9.585.967 12.023.567.353 1.242.579 1.898.73.701.161.972.549.979 1.213.002.158.003.316.013.474.376 5.942.637 11.895 1.164 17.824.55 6.194 1.319 12.369 2.062 18.544.856 7.119 1.788 14.228 2.687 21.34.156 1.235.314 2.47.486 3.828" transform="translate(258.1367 314.8789)"/><path d="m0 0c.966-.033 1.345.669 1.742 1.322.243.399.348.935.679 1.218 1.758 1.5 3.413 3.07 4.931 4.838 1.652 1.924 3.652 3.55 5.49 5.316.164.158.255.391.445.694-4.332-1.19-12.859-9.809-13.287-13.388m52.488 13.614c-1.625.24-2.391-.033-3.574-.428-1.484-.497-2.078-1.836-3.019-2.809-1.593-1.647-2.961-3.51-4.436-5.272-.234-.28-.525-.516-.804-.756-.872-.753-1.783-1.464-2.613-2.259-.448-.429-.718-1.04-1.148-1.492-1.116-1.17-2.275-2.297-3.416-3.441 2.015.35 3.863.981 5.37 2.244.949.795 1.664 1.864 2.555 2.737 1.5 1.467 3.106 2.828 4.577 4.321 2.048 2.077 4.018 4.232 6.009 6.364.199.212.318.498.499.791m-9.987-.611c-.664-.954-1.113-1.716-1.678-2.382-.765-.903-1.61-1.739-2.435-2.589-.939-.967-1.924-1.891-2.833-2.884-1.236-1.349-2.353-2.812-3.639-4.107-1.957-1.971-4.02-3.836-6.027-5.758-.304-.291-.545-.647-.816-.972l.229-.26c1.816.521 3.74.689 5.107 2.376 1.409 1.74 2.969 3.359 4.489 5.006.625.676 1.373 1.243 1.969 1.94.865 1.008 2.148 1.67 2.571 3.05.014.045.072.077.111.111 1.421 1.243 2.858 2.467 4.259 3.733.903.817 1.752 1.694 2.701 2.618-1.35.413-2.672.417-4.008.118m-1.326-.023c-1.466.272-2.688.647-3.669-.341-1.438-1.447-2.775-2.994-4.161-4.493-.536-.579-1.067-1.167-1.646-1.702-1.837-1.694-3.7-3.359-5.541-5.048-.757-.694-1.502-1.402-2.221-2.136-2.044-2.091-3.757-4.532-6.395-5.994-.146-.081-.205-.317-.375-.595 1.307-.178 2.413.174 3.536.319 1.071.138 1.97.702 2.443 1.579 1.125 2.084 3.202 3.223 4.643 4.973 1.263 1.533 3.014 2.646 3.868 4.535.119.263.373.521.63.659 1.417.759 2.463 1.904 3.431 3.15.928 1.196 1.885 2.347 3.236 3.142.739.435 1.318 1.142 2.221 1.952m-10.092.822c-1.147.413-2.147.919-3.04.421-.873-.488-1.55-1.353-2.257-2.105-1.397-1.486-2.694-3.073-4.148-4.498-1.643-1.61-3.414-3.089-5.127-4.628-.075-.068-.132-.164-.177-.257-.602-1.219-1.6-2.039-2.696-2.795-1.12-.773-2.226-1.575-2.738-2.953-.129-.352-.555-.594-.845-.888-.51-.517-.995-1.061-1.535-1.544-.568-.507-1.187-.956-2.032-1.628.731-.193 1.158-.327 1.593-.417 1.03-.211 1.864-.099 2.615.864 1.795 2.306 3.986 4.262 5.842 6.544 1.475 1.812 3.446 3.274 5.093 5.012 1.488 1.572 3.243 2.89 4.755 4.443 1.3 1.334 2.424 2.838 4.143 3.7.161.081.246.314.554.729m-19.092-21.43c1.495-.125 2.867-.221 4.31.214.107 1.004.563 1.778 1.418 2.319.301.191.548.493.767.784 1.216 1.615 2.441 3.218 4.057 4.47.66.512 1.334 1.01 1.968 1.554 1.339 1.148 2.132 2.768 3.491 3.933 1.142.979 1.982 2.301 3.055 3.373 1.222 1.222 2.562 2.326 3.829 3.505.201.188.283.504.47.856-1.08.316-2.094.682-2.933-.09-1.348-1.241-2.595-2.592-3.866-3.915-.723-.751-1.377-1.571-2.12-2.301-.893-.877-1.857-1.679-2.772-2.533-.648-.605-1.454-1.142-1.854-1.888-.648-1.204-2.299-1.566-2.474-3.111-.011-.091-.276-.135-.394-.235-1.277-1.086-2.612-2.114-3.801-3.288-1.068-1.054-1.974-2.27-3.151-3.647m9.018 23.239c-.072.11-.145.22-.217.329-1.28 0-2.59.104-3.374-1.314-.122-.22-.358-.381-.557-.553-1.454-1.254-2.977-2.435-4.35-3.772-1.537-1.498-2.937-3.136-4.401-4.71-.213-.229-.451-.435-.672-.658-1.297-1.314-2.859-2.385-3.731-4.09-.141-.274-.32-.564-.558-.745-1.356-1.031-2.727-2.043-4.109-3.038-.82-.59-.875-1.367-.013-1.854.564-.319 1.231-.455 1.798-.654.413.589.661 1.04 1.002 1.405.421.451.96.792 1.374 1.248 1.216 1.338 2.348 2.754 3.605 4.051.791.816 1.817 1.401 2.611 2.214 1.337 1.368 2.562 2.844 3.857 4.255.425.463.909.873 1.38 1.291.822.727 1.693 1.401 2.47 2.17.997.985 1.937 2.03 2.873 3.074.374.417.677.899 1.012 1.351m-18.483-21.839c.709-.22 1.197-.439 1.706-.508.327-.044.781.025 1.01.23.811.728 1.517 1.572 2.323 2.306 1.738 1.581 2.769 3.866 4.975 4.981.175.088.342.282.416.466.893 2.203 2.99 3.331 4.59 4.828 1.506 1.409 2.629 3.122 4.152 4.468 1.084.957 1.629 2.464 3.192 2.957.651.205.589.897.389 1.454-1.152.725-2.042.594-2.888-.49-.957-1.224-2.268-2.11-3.226-3.381-.965-1.28-2.264-2.309-3.427-3.437-.629-.61-1.295-1.182-1.917-1.799-1.187-1.178-2.518-2.258-3.486-3.597-1.036-1.434-2.35-2.533-3.587-3.732-1.244-1.205-2.54-2.356-3.77-3.573-.228-.224-.259-.648-.452-1.173m43.664 9.724c5.498 3.451 13.956 10.514 14.814 12.497-1.476-.41-2.809-.855-4.176-1.136-.954-.195-1.639-.673-2.16-1.429-.72-1.043-2.003-1.581-2.496-2.834-.084-.211-.401-.325-.599-.497-.552-.477-1.135-.928-1.643-1.45-1.016-1.046-1.993-2.13-2.979-3.207-.507-.553-.946-1.142-.739-1.96-1.166.173-1.166.173-1.226-.658.439.245.822.46 1.204.674m19.051 12.6c-.455-.423-.781-.673-1.045-.977-5.366-6.201-11.698-11.232-18.71-15.431-5.856-3.505-11.967-6.458-18.57-8.297-5.782-1.612-11.649-2.444-17.667-1.901-11.853 1.069-20.09 7.09-24.45 18.151-3.008 7.632-3.73 15.546-1.911 23.606.323 1.431.8 2.845 1.369 4.198.323.765.248 1.272-.279 1.839-.683.733-1.327 1.5-1.982 2.257-.206.238-.532.478-.558.74-.042.422-.01.964.227 1.274.359.469.937.412 1.415.048.162-.124.299-.299.405-.477 2.496-4.153 6.07-7.259 9.91-10.079 4.095-3.008 8.599-5.323 13.177-7.496 4.93-2.339 10.084-4.011 15.407-5.172.714-.155 1.46-.153 2.188-.251.41-.055.817-.147 1.218-.253.404-.107.801-.37 1.197-.362 2.743.05 5.355-.932 8.084-.986 2.687-.052 5.371-.229 8.058-.239 7.673-.031 15.084 1.455 22.3 4.008 2.152.762 2.86.49 3.503-1.721.72-2.475 1.202-5.019 1.783-7.535.035-.152.073-.33.028-.469-.109-.332-.204-.862-.417-.923-.332-.096-.845.02-1.122.244-.438.354-.82.83-1.09 1.328-.603 1.108-1.117 2.263-1.678 3.395-.223.451-.473.889-.79 1.481" transform="translate(293.8516 358.2261)"/><path d="m0 0c.274.167.412.203.429.27.106.406.232.816.264 1.231.331 4.242.096 8.432-1.382 12.465-.655 1.784-1.601 3.42-2.853 4.883-2.369 2.767-5.449 4.463-8.736 5.803-3.164 1.288-6.31 1.019-9.282-.657-2.086-1.176-3.893-2.71-5.23-4.724-2.539-3.829-4.801-7.807-6.458-12.107-1.009-2.618-1.302-5.386-1.942-8.207 2.809-.923 5.344-2.176 8.225-2.822.119.611.19 1.012.276 1.411.31 1.439.506 2.916.96 4.309 1.383 4.238 3.832 7.718 7.645 10.135.539.342 1.17.537 1.89.859.15-.654.292-1.049.327-1.453.221-2.569.414-5.142.627-7.712.049-.589-.151-1.262.666-1.87.277.641.55 1.173.743 1.733 1.032 2.986 2.016 5.991 3.079 8.966.478 1.335.83 1.527 2.142 1.023 1.214-.468 2.45-1.022 3.482-1.796 3.099-2.323 4.492-5.615 4.923-9.374.087-.756.133-1.516.205-2.366m1.312-22.805c-1.273.721-2.592 1.371-3.809 2.174-8.736 5.764-18.135 10.309-27.521 14.859-2.732 1.324-5.73 2.1-8.601 3.142-.591.215-1.204.425-1.726.763-.622.404-.482 1.037.224 1.295.098.036.208.078.307.066 1.478-.184 1.845.779 2.134 1.949 1.454 5.888 3.888 11.349 7.244 16.401 1.789 2.69 3.761 5.212 6.34 7.204 3.053 2.357 6.458 3.271 10.248 2.385 6.702-1.567 11.741-5.337 14.793-11.552 1.416-2.884 1.755-6.056 1.9-9.228.062-1.366.082-2.75-.059-4.106-.162-1.563-.324-3.173-.835-4.642-1.56-4.484-3.418-8.846-6.06-12.83-.822-1.238-.755-1.256.446-2.289 1.513-1.304 2.974-2.668 4.429-4.036.358-.336.608-.787.908-1.185-.121-.123-.241-.246-.362-.37" transform="translate(358.04 416.6382)"/><path d="m0 0c-.222-1.024-.624-1.806-1.31-2.436-.542-.498-1.107-.975-1.687-1.429-1.74-1.361-3.446-2.774-5.259-4.031-1.202-.834-2.547-1.474-3.87-2.112-.289-.14-.795.019-1.134.18-.257.122-.418.459-.602.714-2.258 3.112-4.575 6.184-6.754 9.349-3.399 4.935-7.956 8.681-12.541 12.394-1.052.852-2.346 1.403-3.524 2.101-.497.296-1.017.569-1.463.932-.966.786-1.09 1.613-.364 2.621 2.255 3.129 4.152 6.456 5.776 9.955 1.333 2.872 1.941 3.133 4.706 1.577 4.037-2.272 7.952-4.752 11.345-7.969 2.558-2.425 5.185-4.766 7.526-7.424 2.977-3.38 5.555-7.019 7.723-10.95.601-1.089.961-2.311 1.432-3.472" transform="translate(379.9082 441.6934)"/><path d="m0 0c.191.177.292.234.337.32.073.138.133.29.156.443.504 3.342.421 6.605-1.11 9.731-1.58 3.224-5.145 4.661-8.501 3.379-4.36-1.666-7.123-4.917-9.046-9.019-1.888-4.024-2.961-8.335-4.388-12.521-.322-.943-.51-1.938-.675-2.924-.19-1.136-.091-1.261.99-1.58 1.062-.314 2.131-.604 3.206-.862.323-.077.679-.012 1.205-.012-.578 3.013-.003 5.707 1.266 8.263 1.256 2.528 2.928 4.695 5.566 6.328.288-.675.536-1.123.675-1.602.618-2.146 1.569-4.135 2.775-6.005.177-.273.484-.462.736-.694.826.566.786 1.349.886 2.057.304 2.138.568 4.283.874 6.422.176 1.23.552 1.495 1.686.944.88-.427 1.646-1.098 2.431-1.702.352-.27.624-.642.931-.966m-1.083-21.823c-.944-.479-1.552-.043-2.161.195-3.236 1.268-6.469 2.547-9.694 3.845-2.945 1.185-5.983 2.027-9.105 2.581-2.022.36-4.053.686-6.058 1.127-1.028.226-2.22.248-2.991 1.562.569.243 1.043.549 1.556.643.981.181 1.982.268 2.978.342.714.053 1.027.385 1.052 1.093.209 5.967 2.113 11.482 4.774 16.722 2.478 4.881 6.345 8.251 11.617 10.097 3.699 1.296 10.112-1.26 11.424-6.235.815-3.091.908-6.144.413-9.23-.584-3.639-1.179-7.287-2.035-10.867-.708-2.962-1.763-5.845-2.752-8.733-.322-.937-.561-1.68.49-2.279.216-.123.29-.493.492-.863" transform="translate(311.2432 440.1797)"/><path d="m0 0c1.569-.179 3.145-.315 4.704-.559.606-.094 1.192-.39 1.753-.665.741-.364 1.051-1.017.969-1.83-.079-.786-.2-1.568-.297-2.353-.292-2.352-.581-4.704-.868-7.057-.038-.313-.027-.636-.088-.944-.431-2.139-1.025-2.909-3.441-2.538-6.852 1.054-13.549.279-20.102-1.949-1.543-.524-3.111-1.014-4.704-1.34-1.671-.343-2.506.452-2.144 2.101.664 3.032 1.479 6.031 2.271 9.034.357 1.356 1.288 2.217 2.532 2.861 5.408 2.802 11.179 4.338 17.194 5.058.314.037.63.065.946.074.421.013.842.003 1.264.003.004.035.007.069.011.104" transform="translate(314.1113 480.7749)"/><path d="m0 0c.067-.431.152-.86.198-1.293.292-2.728.628-5.43 1.822-7.965 2.055-4.363 5.457-7.448 9.407-9.983 4.153-2.665 8.789-3.97 13.652-4.634 8.886-1.214 17.288.53 25.441 3.961 1.115.47 2.257.876 3.399 1.277.322.114.687.103 1.301.185-.294-.503-.395-.88-.641-1.06-1.015-.745-2.017-1.539-3.126-2.121-5.088-2.669-10.513-4.29-16.202-5.071-5.586-.766-11.136-.727-16.625.682-4.443 1.14-8.585 2.96-12.051 6.017-5.714 5.039-7.915 11.491-7.301 18.99.03.358.231.702.352 1.052.125-.012.249-.024.374-.037" transform="translate(275.2314 364.7524)"/><path d="m0 0c-.312.132-.679.199-.93.405-5.419 4.438-10.281 9.385-13.678 15.581-.72 1.312-1.234 2.822-1.467 4.3-.605 3.847 1.368 6.568 5.168 7.426 3.062.692 6.093.373 9.063-.472 2.075-.59 4.1-1.357 6.142-2.059.241-.083.49-.219.665-.398.379-.387.205-1.017-.32-1.102-.349-.056-.73.024-1.087.09-3.484.653-7.003.894-10.539.809-1.095-.026-2.212-.199-3.268-.488-1.749-.478-2.527-1.532-2.176-3.3.334-1.683.817-3.417 1.64-4.906 1.37-2.479 2.971-4.848 4.648-7.137 1.804-2.463 3.814-4.775 5.717-7.165.303-.379.522-.824.779-1.239-.119-.115-.238-.23-.357-.345" transform="translate(304.7783 390.1533)"/><path d="m0 0c1.159-.094 1.966-.808 2.898-1.418 1.342-.879 2.426-2.048 3.924-2.802 2.2-1.107 3.987-3.021 6.161-4.203 1.087-.592 1.644-1.817 3.023-2.068.564-.103 1.595-.644 1.537-1.868-.332.058-.665.025-.876.169-1.55 1.053-3.068 2.155-4.612 3.216-.777.536-1.547 1.107-2.393 1.507-1.594.756-2.82 1.985-4.209 3.007-1.041.767-2.245 1.313-3.367 1.973-.544.32-1.083.654-1.596 1.021-.511.366-.816.833-.46 1.487z" transform="translate(221.1411 230.0615)"/><path d="m0 0c.142.06.301.191.415.159.234-.065.457-.198.662-.338 4.98-3.382 10.123-6.537 14.704-10.472-2.893.842-14.902 9.019-15.781 10.651" transform="translate(224.6582 213.3125)"/><path d="m0 0c-.656-.261-1.164-.079-1.728.358-1.359 1.056-2.759 2.067-4.202 3.003-1.707 1.107-3.514 2.06-5.208 3.184-2.001 1.327-3.933 2.761-5.88 4.168-.172.125-.24.395-.247.715 5.959-3.522 11.769-7.222 17.224-11.462.006.005.041.034.041.034" transform="translate(233.1436 245.5625)"/><path d="m0 0c-5.635 2.617-10.224 6.768-15.413 10.001-.012.009.073.175.149.352 1.271-.063 2.073-1.08 3.087-1.64 1.554-.859 3.061-1.813 4.545-2.791 1.39-.917 2.719-1.925 4.085-2.88.638-.446 1.273-.911 1.958-1.275.756-.402 1.34-.913 1.589-1.767" transform="translate(232.6108 250.3281)"/><path d="m0 0c-1.095.584-2.285 1.04-3.267 1.775-3.593 2.689-7.807 4.504-11.321 7.892.518.029.74.114.859.037 1.558-1.004 3.261-1.728 4.801-2.811 1.928-1.355 3.69-2.913 5.631-4.234.768-.523 1.66-.861 2.462-1.341.421-.251.769-.624 1.149-.942-.105-.126-.21-.251-.314-.376" transform="translate(240.2695 230.8516)"/><path d="m0 0c.81-.526 1.621-1.049 2.428-1.578 2.321-1.523 4.64-3.047 6.96-4.57.78-.513 1.583-.998 2.327-1.558.177-.133.163-.519.306-1.043-1.001.501-1.81.823-2.529 1.283-1.628 1.041-3.209 2.154-4.816 3.229-.913.61-1.795 1.288-2.77 1.777-.991.496-1.611 1.26-2.18 2.115.091.116.183.23.274.345" transform="translate(226.7739 202.7715)"/><path d="m0 0c-1.297.304-2.45.971-3.552 1.716-1.418.958-2.795 1.975-4.195 2.961-.212.149-.534.208-.658.402-.148.234-.262.629-.159.843.092.193.504.34.761.319.287-.022.581-.222.833-.401 2.177-1.537 4.352-3.078 6.509-4.643.274-.198.445-.539.664-.813-.068-.128-.135-.256-.203-.384" transform="translate(227.7109 229.8701)"/><path d="m0 0c.592.456 1.049.139 1.542-.226 1.553-1.148 3.129-2.265 4.69-3.402 1.332-.971 2.655-1.953 4.001-2.943-.408-.568-.79-.416-1.153-.171-1.087.734-2.148 1.505-3.248 2.218-1.527.989-3.071 1.952-4.624 2.898-.903.55-.996.627-1.208 1.626" transform="translate(230.2734 214.2344)"/><path d="m0 0c.735-.391 1.467-.786 2.206-1.17.68-.354 1.411-.631 2.043-1.055 1.341-.897 2.55-2.027 3.969-2.759 1.083-.559 2.097-1.135 2.963-1.979.103-.099.139-.267.198-.389-.227-.565-.67-.546-1.056-.356-.561.274-1.21.539-1.58 1.001-1.123 1.397-2.685 2.148-4.139 3.065-1.284.808-2.567 1.617-3.855 2.416-.476.296-.856.629-.705 1.267z" transform="translate(218.1475 222.335)"/><path d="m0 0c1.766-.097 2.929-.931 3.92-1.839 1.416-1.298 3.163-1.991 4.727-3.007.215-.14.569-.134.705-.313.193-.252.41-.677.32-.915-.192-.504-.674-.419-1.054-.165-.562.373-1.059.851-1.643 1.182-2.443 1.384-4.612 3.128-6.975 5.057" transform="translate(222.2358 209.8896)"/><path d="m0 0c-1.646.44-6.677 3.763-7.671 4.992.12.514.454.522.815.287 1.858-1.211 3.703-2.443 5.562-3.655.561-.365 1.166-.674 1.294-1.624" transform="translate(226.1426 245.1504)"/><path d="m0 0c.98.012 1.717-.288 2.47-1.058 1.04-1.063 2.395-1.817 3.606-2.716.397-.294.763-.629 1-1.219-.265.046-.58.014-.786.15-1.804 1.186-3.607 2.374-5.363 3.628-.391.28-.594.825-.884 1.248z" transform="translate(232.1177 231.8662)"/><path d="m0 0c-.454.103-.971.1-1.351.326-1.207.721-2.373 1.512-3.533 2.306-.759.518-1.482 1.09-2.31 1.704.663.643 1.023.838 1.694.215 1.14-1.06 2.14-2.288 3.768-2.805.681-.216 1.128-1.167 1.686-1.781.003.002.046.035.046.035" transform="translate(232.1611 231.8994)"/><path d="m0 0c1.178-.792 2.34-1.608 3.541-2.365.548-.345 1.116-.608.892-1.411-.001-.001.04.041.039.041-.956-.159-1.723.154-2.391.855-.391.41-.846.791-1.34 1.062-.785.43-.925 1.047-.741 1.831z" transform="translate(236.0874 201.3906)"/><path d="m0 0c-1.492.462-5.46 3.088-6.284 4.239.451-.041.835.03 1.102-.115 1.821-.99 4.9-3.476 5.182-4.124" transform="translate(221.7324 243.4229)"/><path d="m0 0c1.87-.238 3.007-1.65 4.479-2.489.198-.114.215-.544.178-.917-1.786.899-3.559 1.71-4.657 3.406" transform="translate(218.939 217.0889)"/><path d="m0 0c.762.78 1.303.47 1.616.142.947-.996 2.64-1.102 3.138-2.635-1.987.034-2.976 1.765-4.754 2.493" transform="translate(226.6128 244.2666)"/><path d="m0 0c-.356.013-.771-.088-1.06.058-1.476.745-2.944 1.518-4.149 2.685-.1.096-.124.271-.209.471.528.362.929.002 1.262-.234 1.387-.979 2.742-2.003 4.117-3.006.009.005.039.026.039.026" transform="translate(221.1714 230.082)"/><path d="m0 0c1.333.039 3.365-1.283 4.486-2.833-2.049.409-2.903 2.182-4.486 2.833" transform="translate(214.3452 243.5186)"/><path d="m0 0c1.418-.92 2.837-1.839 4.255-2.758-.07-.111-.141-.221-.212-.333-1.343.759-2.746 1.422-3.883 2.523-.12.117-.084.396-.12.6z" transform="translate(226.7471 197.7256)"/><path d="m0 0c-1.309.057-1.754 1.282-3.037 1.69 1.59.611 2.673-.11 3.037-1.69" transform="translate(231.3979 227.2451)"/><path d="m0 0c-1.529.195-2.268 1.136-3.202 1.933 1.275.33 2.005-.103 3.202-1.933" transform="translate(218.3262 236.2852)"/><path d="m0 0c.297.003.646.109.883-.009.833-.415 1.643-.883 2.427-1.387.205-.131.279-.466.303-.83-1.395.47-2.428 1.466-3.581 2.271z" transform="translate(234.4868 239.2881)"/><path d="m0 0c-.559.262-1.129.502-1.672.793-.408.219-.802.491-.619 1.074 1.469-.095 2.021-.566 2.261-1.909-.002-.003.03.042.03.042" transform="translate(234.519 239.333)"/><path d="m0 0c1.752-.227 1.827-.291 1.726-1.413-.821.096-1.471.362-1.726 1.413" transform="translate(222.3672 238.4238)"/><path d="m0 0c-1.056-.194-1.542.29-2.01 1.36.905-.381 1.702-.374 2.01-1.36" transform="translate(220.7939 211.1943)"/><path d="m0 0c-1.15-.143-1.539.665-2.148 1.65 1.199-.249 1.57-1.079 2.148-1.65" transform="translate(217.0713 227.6777)"/><path d="m0 0c-.591.405-1.183.81-1.774 1.215.068.102.135.206.203.308.752-.162 1.455-.405 1.852-1.158-.094-.122-.187-.243-.281-.365" transform="translate(217.1489 250.9268)"/><path d="m0 0c-.813.077-1.318.461-1.554 1.458 1.018-.173 1.328-.774 1.554-1.458" transform="translate(219.5864 225.8564)"/><path d="m0 0c.794-.485 1.779-.715 2.219-1.678-.839.424-1.928.527-2.172 1.72z" transform="translate(220.0684 263.7979)"/><path d="m0 0c-.593.393-1.187.784-1.998 1.32 1.101.147 1.101.147 2.231-1.068-.078-.084-.155-.168-.233-.252" transform="translate(223.4268 204.1318)"/><path d="m0 0c-1.04-.067-1.459.169-1.518.993.858.303 1.055-.269 1.518-.993" transform="translate(241.8628 225.3057)"/><path d="m0 0c-.939-.508-1.198.047-1.619.65.744.205 1.164-.004 1.619-.65" transform="translate(225.4248 241.3408)"/><path d="m0 0c-1.125.146-1.304.234-2.118 1.079 1.2.47 1.376-.819 2.074-1.115.004.004.044.036.044.036" transform="translate(226.7871 197.7578)"/><path d="m0 0c-.62-.479-1.054-.452-1.241.12-.027.083.195.348.23.335.345-.128.676-.297 1.011-.455" transform="translate(242.5625 206.1846)"/><path d="m0 0c-.387.122-.774.243-1.422.447 1.037.503 1.177-.038 1.373-.491.002.002.049.044.049.044" transform="translate(220.1152 263.8398)"/><path d="m0 0c-.299.257-.544.468-1.058.91.842-.071 1.267-.078 1.058-.91" transform="translate(214.3892 238.833)"/><path d="m0 0c-.295.122-.59.244-1.016.421.857.509.783-.174.971-.463.001.001.045.042.045.042" transform="translate(218.1914 222.376)"/><path d="m0 0c-.173-.184-.306-.386-.355-.367-.156.058-.299.186-.399.322-.022.029.165.302.241.295.158-.015.305-.141.513-.25" transform="translate(233.4302 203)"/><path d="m0 0c-.813-.28-.813-.28-1.323.394.546-.175.93-.297 1.319-.414.004.007.004.02.004.02" transform="translate(236.0869 201.4033)"/><path d="m0 0c-.268.182-.424.372-.559.357-.143-.015-.265-.224-.397-.348.131-.124.252-.329.397-.349.133-.017.292.167.559.34m-140.216 38.865c1.849-1.832 2.608-1.655 3.321.581-1.074-.188-2.044-.358-3.321-.581m134.106-39.086c.804-.07 1.525-.162 2.249-.19 1.676-.064 1.764.009 2.584 1.911-.694.514-1.425 1.055-2.442 1.809-.199-1.762-2.427-1.534-2.391-3.53m-124.784 39.728c-3.101.637-3.765.203-5.141-3.197 1.258-1.049 1.616-1.071 2.526.095.701.9 1.234 1.933 2.345 2.442.127.058.149.346.27.66m119.625-39.305c1.111-.077 1.833-.166 2.555-.156.273.004.595.179.803.374.86.808 1.717 1.623 2.504 2.501.225.252.387.787.275 1.074-.33.845-1.522 1.081-2.219.471-1.026-.899-2.03-1.825-2.999-2.785-.312-.31-.483-.764-.919-1.479m-121.528 34.332c.181-.168.279-.3.411-.375 1.272-.722 1.443-.716 2.49.379 1.043 1.089 2.042 2.221 3.056 3.338.395.435.776.881 1.266 1.44-1.5.435-2.682.562-3.66-.615-1.144-1.374-2.322-2.719-3.563-4.167m124.506-28.244c-.928.303-1.691.833-2.131.637-.854-.382-1.868-.771-2.226-1.846-.386-1.154-1.308-1.872-2.177-2.633-.483-.422-.935-.879-1.532-1.446 1.728-.635 3.052-.81 4.207.605.885 1.084 1.926 2.04 2.858 3.089.329.37.539.847 1.001 1.594m-112.087 32.555c-1.988.774-2.843.638-3.731-.412-1.352-1.597-2.731-3.172-4.16-4.699-.398-.427-.787-.745-.343-1.303.489-.616 1.47-.755 1.942-.293.709.695 1.489 1.346 2.064 2.143.722 1.003 1.637 1.695 2.649 2.363.752.497 1.502 1.151 1.579 2.201m99.133-37.128c1.257-.446 2.36-.907 3.258-.337.969.618 1.761 1.587 2.471 2.524.944 1.244 1.549 2.769 3.151 3.409.151.061.218.33.316.491-1.763 1.746-2.715 1.313-3.76-.087-.062-.084-.127-.168-.197-.246-1.328-1.467-2.657-2.933-3.988-4.397-.366-.405-.739-.803-1.251-1.357m-94.168 36.486c-2.141.913-2.916.784-4.141-.719-1.48-1.818-2.795-3.776-4.746-5.171-.433-.31-.704-.848-1.049-1.28 2.226-1.809 2.794-.929 3.691.513.442.712.949 1.231 1.681 1.579.234.111.496.227.657.416 1.278 1.501 2.536 3.02 3.907 4.662m-5.941-9.081c1.824-.984 1.822-.982 2.963.185.684.698 1.375 1.388 2.055 2.089.181.187.324.412.498.606.409.456.769.983 1.252 1.34 1.579 1.162 2.684 2.72 3.863 4.299-1.372.749-2.491.541-3.446-.549-.724-.826-1.414-1.683-2.133-2.514-.509-.588-1.004-1.197-1.572-1.724-.801-.744-1.707-1.377-2.481-2.146-.412-.407-.64-.999-.999-1.586m95.157-26.715c.613-.221.843-.345 1.086-.385.973-.157 2.023-.529 2.468.881.057.178.415.261.635.387.31.178.74.277.912.544 1.087 1.687 2.45 3.065 4.132 4.172.576.379.98 1.02 1.63 1.722-1.037.46-1.828.81-2.524 1.118-2.788-2.823-5.455-5.521-8.339-8.439m6.517 9.224c-.573.285-1.198 1.072-1.965.532-.804-.568-1.996-.731-2.301-1.977-.097-.391-.623-.683-.966-1.005-.682-.643-1.378-1.272-2.06-1.916-.375-.354-.755-.707-1.091-1.096-.835-.966-1.647-1.953-2.493-2.961 1.92-.861 2.466-.764 3.614.499 1.079 1.187 2.163 2.369 3.265 3.534.777.822 1.61 1.592 2.377 2.421.539.581 1.011 1.223 1.62 1.969m-19.795-6.818c1.734-.665 1.889-.613 2.69.228.862.905 1.797 1.741 2.682 2.625.409.407.795.838 1.157 1.287.644.803 1.19 1.699 1.912 2.422.734.738 1.667 1.274 2.441 1.977.39.353.621.88.92 1.323-1.51 1.054-1.53 1.077-2.654.079-1.199-1.065-2.384-2.15-3.52-3.283-1.329-1.327-2.503-2.828-3.928-4.035-.867-.733-1.342-1.53-1.7-2.623m3.589-.448c2.484-1.455 3.401-1.266 4.532.67.078.134.144.285.252.393 1.577 1.573 3.177 3.122 4.734 4.715.934.956 1.802 1.977 2.707 2.978-1.693 1.252-2.123 1.192-3.371-.204-1.348-1.511-2.634-3.103-4.155-4.42-.664-.575-1.125-1.289-1.775-1.833-.896-.748-1.834-1.446-2.924-2.299m-81.498 23.329c1.505-1.268 1.903-1.24 3.002.044.545.637 1.072 1.322 1.736 1.815 1.306.972 2.531 2.009 3.553 3.284.324.404.748.726 1.102 1.109.794.861 1.812 1.549 2.254 2.708-1.565.88-1.841.894-3.01-.087-1.149-.963-2.298-1.936-3.355-2.996-1.171-1.176-2.241-2.454-3.35-3.692-.65-.724-1.288-1.456-1.932-2.185m16.519 8.114c-2.085 1.017-2.391.95-3.552-.541-.217-.278-.561-.453-.818-.704-.444-.431-.865-.885-1.297-1.328-.282-.29-.588-.559-.852-.865-.889-1.034-2.345-1.415-2.914-2.9-.314-.821-1.076-1.608-2.07-2.008-.556-.223-1.074-.669-1.035-1.402 1.479-1.039 2.217-1.123 3.078-.179 1.326 1.454 2.681 2.882 4.018 4.318 1.279 1.371 2.536 2.759 3.897 4.054.514.491 1.004 1.009 1.545 1.555m4.203-.808c-1.634.711-1.848.718-2.828-.235-1.077-1.047-2.431-1.858-2.971-3.387-.062-.178-.264-.335-.437-.441-1.627-.992-2.94-2.32-4.13-3.789-.223-.274-.51-.527-.82-.693-.812-.436-1.232-1.176-1.738-1.878 1.933-1.221 1.991-1.26 3.428.144 1.189 1.161 2.253 2.449 3.406 3.649.568.591 1.229 1.093 1.818 1.664.52.503 1.006 1.04 1.496 1.571.966 1.046 2.247 1.842 2.776 3.395m42.783-27.104c1.022-.453 1.818-.945 2.713-.388.615.384 1.249.805 1.715 1.346 1.192 1.383 2.289 2.848 3.438 4.268.257.318.561.603.866.877 1.506 1.351 3.031 2.682 4.525 4.047.36.33.627.764 1.073 1.32-.782.295-1.3.54-1.845.683-.74.196-1.3.036-1.629-.798-.203-.51-.632-.954-1.03-1.359-1.401-1.428-2.826-2.833-4.254-4.236-1.568-1.541-3.158-3.062-4.718-4.611-.305-.302-.521-.694-.854-1.149m9.003-1.982c1.111-.441 1.977-.929 2.807-.372 1.037.696 2.131 1.438 2.869 2.412.888 1.171 1.718 2.371 2.852 3.313 1.059.879 1.823 2.051 3.046 2.789.6.361.948 1.172 1.34 1.82.088.144-.044.526-.194.689-.484.53-1.448.603-1.995.124-1.01-.882-2.132-1.7-2.919-2.759-.873-1.176-2.501-1.592-2.97-3.117-.023-.078-.161-.127-.253-.177-1.942-1.074-3.025-2.95-4.583-4.722m-60.921 17.231c.384-.23.625-.418.898-.531 1.707-.706 1.894-.669 3.101.696.938 1.06 1.824 2.166 2.784 3.205.455.492 1.061.843 1.543 1.315 1.663 1.626 3.315 3.264 4.94 4.928.298.305.45.752.741 1.257-.575.209-.946.39-1.338.479-1.38.313-1.703.121-2.375-1.135-.21-.393-.571-.71-.884-1.043-.387-.413-.859-.762-1.18-1.219-.396-.562-.826-1.004-1.402-1.422-.95-.691-1.712-1.644-2.536-2.503-.58-.604-1.096-1.275-1.707-1.844-.792-.737-1.651-1.401-2.585-2.183m56.68-16.382c1.231-.514 2.296-.905 3.183.347.14.197.449.265.648.43.717.592 1.315 1.238 1.855 2.047.827 1.238 1.98 2.326 3.188 3.214.649.478 1.196.95 1.655 1.591.267.373.664.649.947 1.013.618.793 1.556 1.429 1.439 2.604-1.542.845-1.668.915-2.61-.196-1.477-1.742-3.582-2.893-4.662-5.002-.112-.22-.36-.374-.558-.543-.907-.773-1.881-1.479-2.712-2.325-.899-.913-2.01-1.699-2.373-3.18m-47.911 13.378c1.809-1.143 2.139-.923 3.459.531.633.699 1.22 1.444 1.891 2.105 1.782 1.755 3.618 3.455 5.392 5.219 1.229 1.222 2.39 2.515 3.612 3.809-2.044 1.076-2.36.987-3.686-.605-.738-.885-1.521-1.749-2.385-2.506-2.072-1.813-4.298-3.452-5.944-5.714-.702-.962-1.513-1.844-2.339-2.839m53.127.464c-1.321.891-2.809 1.005-3.328.054-.744-1.362-2.114-2.025-2.975-3.184-.948-1.276-2.193-2.197-3.352-3.233-.601-.538-1.044-1.249-1.615-1.824-1.114-1.121-2.268-2.202-3.616-3.502 1.101-.288 2.039-.948 2.771-.487 1.211.762 2.218 1.862 3.265 2.866.445.429.734 1.018 1.168 1.462 1.616 1.658 3.27 3.278 4.895 4.928.94.953 1.849 1.935 2.787 2.92m-6.373 2.293c-.774-.819-1.421-1.577-2.142-2.257-2.043-1.927-4.139-3.799-6.164-5.744-.67-.643-1.047-1.734-1.81-2.105-1.302-.635-1.374-1.92-2.187-2.809 2.04-.874 2.062-.895 3.353.48.603.641.978 1.559 1.672 2.036 1.282.881 2.12 2.126 3.166 3.201 1.692 1.741 3.57 3.3 5.146 5.166.32.378 1.12.575.835 1.15-.203.411-.889.592-1.375.847-.126.067-.308.026-.494.035m-36.634 10.057c-.697.232-1.13.382-1.567.519-.822.259-1.353.051-2.022-.633-1.934-1.976-3.545-4.299-5.959-5.787-.244-.151-.365-.495-.555-.741-.57-.737-1.08-1.538-1.738-2.188-.625-.616-1.404-1.078-2.123-1.597-.414-.299-.512-.685-.23-1.085.628-.892 2.308-.818 2.896.1.197.307.338.719.621.89 1.276.77 2.171 1.924 3.191 2.961 1.718 1.745 3.505 3.421 5.243 5.147.701.696 1.347 1.447 2.243 2.414m-5.674-14.187c1.368-.778 1.779-.739 2.894.252 1.566 1.394 3.012 2.9 4.38 4.494.744.865 1.619 1.7 2.601 2.251.678.381 1.178.772 1.563 1.416.178.297.497.51.749.764.838.839 1.61 1.715 1.781 2.932-1.574.706-1.673.765-2.659-.175-1.126-1.074-2.121-2.285-3.201-3.409-.35-.364-.748-.755-1.202-.933-.842-.329-1.464-.757-1.685-1.698-.077-.322-.362-.625-.616-.87-1.243-1.201-2.535-2.352-3.75-3.58-.381-.386-.576-.958-.855-1.444m4.168-1.395c1.159-.714 2.094-.804 2.916.067 1.469 1.556 2.985 3.078 4.321 4.744.802.999 1.675 1.803 2.757 2.47.883.543 1.736 1.198 2.432 1.96.59.647.942 1.481 1.796 1.927.277.145.351.675.513 1.018-1.586.886-2.355.996-2.922.108-.544-.853-1.368-1.323-1.989-2.024-2.039-2.302-4.791-3.855-6.612-6.374-1.588-.836-2.063-2.553-3.212-3.896m21.482-6.151c.906-.57 1.746-1.045 2.396-.493 1.507 1.28 2.882 2.719 4.265 4.139 1.316 1.352 2.454 2.904 3.891 4.104 1.437 1.197 2.465 2.707 3.711 4.043.118.127.104.378.16.612-.284.145-.504.288-.744.375-1.518.554-1.549.477-2.526-.876-.639-.883-1.438-1.663-2.234-2.416-1.089-1.032-2.486-1.767-3.013-3.319-.078-.227-.336-.399-.529-.577-.876-.809-1.803-1.567-2.627-2.425-.927-.968-1.764-2.023-2.75-3.167m-4.745 1.073c.809-.245 1.437-.485 2.087-.61.262-.05.668.066.845.258 1.064 1.152 2.257 2.168 3.38 3.245 1.246 1.196 2.201 2.692 3.553 3.862 1.726 1.493 3.26 3.207 4.866 4.838.232.237.399.539.602.82-1.917 1.141-2.577 1.184-3.529-.046-1.557-2.012-3.479-3.673-5.2-5.52-1.982-2.127-3.808-4.439-6.175-6.193-.115-.086-.171-.253-.429-.654m-.962 7.586c.55.161 1.176.157 1.49.468 1.367 1.359 2.75 2.728 3.91 4.257.653.862 1.809 1.471 1.83 2.76-1.458.768-2.345.493-3.294-.558-1.098-1.217-1.862-2.781-3.508-3.488-.358-.154-.506-.756-.802-1.107-.322-.38-.66-.93-1.071-1.014-.846-.174-1.237-.712-1.623-1.352-.186-.31-.372-.634-.62-.89-1.048-1.082-2.134-2.126-3.171-3.217-.223-.234-.302-.604-.484-.989.404-.165.682-.3.973-.393 1.673-.529 1.823-.484 2.535 1.072.315.688.658 1.285 1.381 1.631 1.238.591 2.068 1.569 2.454 2.82m-11.411-3.798c1.653-.871 2.534-.651 3.464.628.417.575 1 1.032 1.523 1.526.341.322.743.584 1.061.926.628.675 1.147 1.469 1.841 2.062.838.714 1.709 1.36 2.21 2.384.107.219.347.42.575.525 1.922.889 2.451 3.068 4.21 4.17-1.695 1.013-2.857 1.166-3.467.283-.854-1.238-1.889-2.22-3.098-3.078-.582-.413-1.12-.913-1.595-1.447-1.621-1.819-3.171-3.704-4.822-5.495-.697-.755-1.652-1.282-1.902-2.484m8.192-2.281c1.792-1.292 2.559-1.231 3.795.207.953 1.108 1.844 2.281 2.898 3.283.908.863 1.943 1.56 2.65 2.659.41.635 1.088 1.168 1.757 1.553 1.551.892 2.517 2.318 3.58 3.66.205.258.273.626.401.937-2.117 1.008-2.34.928-3.632-.776-.469-.619-1.084-1.13-1.654-1.668-.495-.469-1.095-.845-1.513-1.371-.761-.954-1.54-1.834-2.703-2.329-.293-.125-.467-.54-.685-.83-.531-.706-.995-1.475-1.599-2.113-1.05-1.11-2.186-2.139-3.295-3.212m37.4 12.272c1.672.346 3.091-.262 4.508-.767 8.598-3.059 16.99-6.631 25.307-10.371 4.131-1.858 8.247-3.809 11.874-6.578 1.457-1.113 2.78-2.418 4.065-3.731.573-.585 1.002-1.366 1.327-2.13.861-2.02.19-3.872-1.863-4.668-1.247-.484-2.661-.752-3.998-.747-5.796.022-11.582.231-17.354.927-8.802 1.061-17.516 2.616-26.183 4.433-16.621 3.485-33.044 7.751-49.228 12.893-12.766 4.057-25.367 8.589-37.63 14.004-4.87 2.151-9.644 4.497-14.114 7.436-1.486.978-3.094 1.749-4.425 2.983-1.486 1.378-1.66 2.944-.192 4.352.627.602 1.435 1.134 2.258 1.389 1.704.526 3.452 1.002 5.216 1.22 5.211.644 10.422.201 15.623-.271 1.155-.104 2.308-.225 3.461-.348.77-.082.769-.089 1.489-.719-.3-.733-.934-.501-1.469-.482-3.107.106-6.211.285-9.318.323-3.909.048-7.799-.258-11.631-1.073-1.022-.217-2.036-.553-2.987-.982-.401-.181-.965-.949-.876-1.095.302-.492.829-.881 1.343-1.189.211-.127.622 0 .914.097 2.749.907 5.591.972 8.445.973 6.662.001 13.27-.714 19.833-1.728 8.072-1.248 16.112-2.703 24.155-4.128 2.638-.468 5.235-1.162 7.866-1.675 1.647-.321 3.274-.694 4.904-1.092 1.477-.361 3.006-.455 4.432-1.109.528-.242 1.228-.092 1.842-.178.385-.053.765-.185 1.126-.335.284-.118.513-.396.801-.468 2.234-.558 4.476-1.081 6.714-1.62.352-.084.702-.181 1.043-.302.543-.193 1.067-.445 1.617-.615 8.654-2.678 17.37-5.168 25.95-8.065 9.343-3.155 18.476-6.889 27.12-11.696 2.016-1.121 3.919-2.481 5.746-3.896 1.5-1.162 2.727-2.629 3.56-4.383.486-1.021 1.326-1.195 2.483-.577.869.464 1.021 1.112.271 2.102-.661.873-1.437 1.687-2.276 2.392-5.602 4.702-11.821 8.463-18.294 11.818-6.004 3.113-12.319 5.493-18.669 7.783-1.339.483-2.68.959-4.013 1.457-.273.102-.515.288-.773.436" transform="translate(448.0156 476.2227)"/></g><g clip-path="url(#c)"><path d="m0 0c-7.639 0-15.658 3.891-15.658 8.445 0 1.708 1.282 3.227 3.037 3.227 4.318 0 3.416-7.022 11.91-7.022 3.985 0 6.073 2.277 6.073 4.365 0 6.453-19.738 1.898-19.738 15.088 0 7.022 6.263 12.146 15.372 12.146 4.935 0 7.45-.854 11.008-2.372 2.515-1.091 2.562-2.04 2.562-6.263 0-1.566-.569-2.847-2.372-2.847-3.559 0-1.898 7.592-9.632 7.592-3.748 0-5.551-1.708-5.551-3.749 0-7.022 19.738-2.941 19.738-15.373 0-8.967-8.873-13.237-16.749-13.237" transform="translate(127.0347 114.468)"/><path d="m0 0c-7.639 0-15.658 3.891-15.658 8.445 0 1.708 1.282 3.227 3.037 3.227 4.318 0 3.416-7.022 11.91-7.022 3.985 0 6.073 2.277 6.073 4.365 0 6.453-19.738 1.898-19.738 15.088 0 7.022 6.263 12.146 15.372 12.146 4.935 0 7.45-.854 11.008-2.372 2.515-1.091 2.562-2.04 2.562-6.263 0-1.566-.569-2.847-2.372-2.847-3.559 0-1.898 7.592-9.632 7.592-3.748 0-5.551-1.708-5.551-3.749 0-7.022 19.738-2.941 19.738-15.373 0-8.967-8.873-13.237-16.749-13.237z" fill="none" stroke="#000" stroke-miterlimit="10" stroke-width="1.155" transform="translate(127.0347 114.468)"/><path d="m0 0c2.277 0 2.799-.759 2.799-2.088 0-1.518-2.135-1.518-2.135-2.846 0-2.563 5.931-10.439 6.595-11.435 1.661 1.85 6.643 9.394 6.643 11.435 0 1.091-2.088 1.233-2.088 2.941 0 1.044.807 1.993 2.8 1.993h4.459c2.278 0 3.179-.475 3.179-1.898 0-1.661-1.708-2.088-3.131-4.175l-9.632-14.234v-8.635c0-2.563 2.515-1.424 2.515-3.891 0-1.187-.617-1.898-3.037-1.898h-10.343c-2.42 0-3.036.711-3.036 1.898 0 2.467 2.514 1.328 2.514 3.891v7.97c-2.182 2.752-7.402 10.723-9.204 14.234-1.661 3.227-4.128 2.42-4.128 4.698 0 1.281.901 2.04 2.989 2.04z" transform="translate(158.0639 149.9583)"/><path d="m0 0c2.277 0 2.799-.759 2.799-2.088 0-1.518-2.135-1.518-2.135-2.846 0-2.563 5.931-10.439 6.595-11.435 1.661 1.85 6.643 9.394 6.643 11.435 0 1.091-2.088 1.233-2.088 2.941 0 1.044.807 1.993 2.8 1.993h4.459c2.278 0 3.179-.475 3.179-1.898 0-1.661-1.708-2.088-3.131-4.175l-9.632-14.234v-8.635c0-2.563 2.515-1.424 2.515-3.891 0-1.187-.617-1.898-3.037-1.898h-10.343c-2.42 0-3.036.711-3.036 1.898 0 2.467 2.514 1.328 2.514 3.891v7.97c-2.182 2.752-7.402 10.723-9.204 14.234-1.661 3.227-4.128 2.42-4.128 4.698 0 1.281.901 2.04 2.989 2.04z" fill="none" stroke="#000" stroke-miterlimit="10" stroke-width="1.155" transform="translate(158.0639 149.9583)"/><path d="m0 0c0-2.894.522-3.653 2.277-3.653 6.263 0 10.344 6.263 10.344 13.095s-4.081 13.095-10.344 13.095c-1.755 0-2.277-.759-2.277-3.653zm-11.387 21.019c0 2.562-2.515 1.423-2.515 3.89 0 1.187.617 1.899 3.037 1.899h16.653c10.391 0 18.695-5.409 18.695-17.366s-8.304-17.366-18.695-17.366h-16.653c-2.42 0-3.037.712-3.037 1.898 0 2.468 2.515 1.329 2.515 3.891z" transform="translate(194.9307 123.1507)"/><path d="m0 0c0-2.894.522-3.653 2.277-3.653 6.263 0 10.344 6.263 10.344 13.095s-4.081 13.095-10.344 13.095c-1.755 0-2.277-.759-2.277-3.653zm-11.387 21.019c0 2.562-2.515 1.423-2.515 3.89 0 1.187.617 1.899 3.037 1.899h16.653c10.391 0 18.695-5.409 18.695-17.366s-8.304-17.366-18.695-17.366h-16.653c-2.42 0-3.037.712-3.037 1.898 0 2.468 2.515 1.329 2.515 3.891z" fill="none" stroke="#000" stroke-miterlimit="10" stroke-width="1.155" transform="translate(194.9307 123.1507)"/><path d="m0 0c0 4.508-2.942 2.752-2.942 5.267 0 1.376.57 1.945 2.942 1.945h4.745c2.372 0 2.942-.569 2.942-1.945 0-2.515-2.942-.759-2.942-5.267v-24.293c0-2.372-.38-3.226-3.511-3.226-3.701 0-3.891.143-5.22 1.945l-15.372 21.019h-.095v-15.752c0-5.029 3.321-2.847 3.321-5.409 0-1.139-.664-1.803-3.321-1.803h-4.745c-2.657 0-3.321.664-3.321 1.803 0 2.562 3.321.38 3.321 5.409v19.169c0 6.262-3.985 3.321-3.985 6.31 0 1.281.284 2.04 2.941 2.04h8.825c1.898 0 2.563-.285 3.701-1.85l12.621-17.128h.095z" transform="translate(245.3301 142.7461)"/><path d="m0 0c0 4.508-2.942 2.752-2.942 5.267 0 1.376.57 1.945 2.942 1.945h4.745c2.372 0 2.942-.569 2.942-1.945 0-2.515-2.942-.759-2.942-5.267v-24.293c0-2.372-.38-3.226-3.511-3.226-3.701 0-3.891.143-5.22 1.945l-15.372 21.019h-.095v-15.752c0-5.029 3.321-2.847 3.321-5.409 0-1.139-.664-1.803-3.321-1.803h-4.745c-2.657 0-3.321.664-3.321 1.803 0 2.562 3.321.38 3.321 5.409v19.169c0 6.262-3.985 3.321-3.985 6.31 0 1.281.284 2.04 2.941 2.04h8.825c1.898 0 2.563-.285 3.701-1.85l12.621-17.128h.095z" fill="none" stroke="#000" stroke-miterlimit="10" stroke-width="1.155" transform="translate(245.3301 142.7461)"/><path d="m0 0c0 2.562-2.515 1.423-2.515 3.89 0 1.187.617 1.899 3.037 1.899h23.154c2.657 0 3.843-.665 3.843-2.847v-2.183c0-1.993-1.186-2.847-2.277-2.847-3.701 0-.522 3.606-9.537 3.606-3.653 0-4.318-.332-4.318-3.606v-5.693h5.836c3.749 0 3.037 1.945 5.03 1.945 1.328 0 1.992-.807 1.992-4.27 0-3.464-.664-4.365-1.992-4.365-2.041 0-1.281 1.945-5.03 1.945h-5.836v-7.164c0-4.508.902-4.983 5.267-4.983 8.73 0 6.31 4.413 9.726 4.413 1.519 0 2.42-.996 2.42-2.514 0-.855-.474-4.223-1.044-5.22-.474-.806-1.47-.949-3.511-.949h-23.723c-2.42 0-3.037.712-3.037 1.898 0 2.467 2.515 1.329 2.515 3.891z" transform="translate(255.2458 144.1697)"/><path d="m0 0c0 2.562-2.515 1.423-2.515 3.89 0 1.187.617 1.899 3.037 1.899h23.154c2.657 0 3.843-.665 3.843-2.847v-2.183c0-1.993-1.186-2.847-2.277-2.847-3.701 0-.522 3.606-9.537 3.606-3.653 0-4.318-.332-4.318-3.606v-5.693h5.836c3.749 0 3.037 1.945 5.03 1.945 1.328 0 1.992-.807 1.992-4.27 0-3.464-.664-4.365-1.992-4.365-2.041 0-1.281 1.945-5.03 1.945h-5.836v-7.164c0-4.508.902-4.983 5.267-4.983 8.73 0 6.31 4.413 9.726 4.413 1.519 0 2.42-.996 2.42-2.514 0-.855-.474-4.223-1.044-5.22-.474-.806-1.47-.949-3.511-.949h-23.723c-2.42 0-3.037.712-3.037 1.898 0 2.467 2.515 1.329 2.515 3.891z" fill="none" stroke="#000" stroke-miterlimit="10" stroke-width="1.155" transform="translate(255.2458 144.1697)"/><path d="m0 0c2.277 0 2.799-.759 2.799-2.088 0-1.518-2.135-1.518-2.135-2.846 0-2.563 5.931-10.439 6.595-11.435 1.661 1.85 6.643 9.394 6.643 11.435 0 1.091-2.088 1.233-2.088 2.941 0 1.044.807 1.993 2.8 1.993h4.46c2.277 0 3.179-.475 3.179-1.898 0-1.661-1.708-2.088-3.132-4.175l-9.632-14.234v-8.635c0-2.563 2.515-1.424 2.515-3.891 0-1.187-.617-1.898-3.037-1.898h-10.343c-2.42 0-3.036.711-3.036 1.898 0 2.467 2.514 1.328 2.514 3.891v7.97c-2.182 2.752-7.402 10.723-9.204 14.234-1.661 3.227-4.128 2.42-4.128 4.698 0 1.281.901 2.04 2.989 2.04z" transform="translate(298.2792 149.9583)"/><path d="m0 0c2.277 0 2.799-.759 2.799-2.088 0-1.518-2.135-1.518-2.135-2.846 0-2.563 5.931-10.439 6.595-11.435 1.661 1.85 6.643 9.394 6.643 11.435 0 1.091-2.088 1.233-2.088 2.941 0 1.044.807 1.993 2.8 1.993h4.46c2.277 0 3.179-.475 3.179-1.898 0-1.661-1.708-2.088-3.132-4.175l-9.632-14.234v-8.635c0-2.563 2.515-1.424 2.515-3.891 0-1.187-.617-1.898-3.037-1.898h-10.343c-2.42 0-3.036.711-3.036 1.898 0 2.467 2.514 1.328 2.514 3.891v7.97c-2.182 2.752-7.402 10.723-9.204 14.234-1.661 3.227-4.128 2.42-4.128 4.698 0 1.281.901 2.04 2.989 2.04z" fill="none" stroke="#000" stroke-miterlimit="10" stroke-width="1.155" transform="translate(298.2792 149.9583)"/><path d="m0 0c0-2.562 2.515-1.423 2.515-3.891 0-1.186-.617-1.897-3.037-1.897h-10.343c-2.42 0-3.037.711-3.037 1.897 0 2.468 2.515 1.329 2.515 3.891v18.03h-.095l-6.168-17.413c-.522-1.471-1.518-1.898-4.555-1.898-2.088 0-3.369.143-4.27 2.372l-6.358 16.275h-.095v-16.701c0-2.942 3.701-2.088 3.701-4.556 0-1.233-.902-1.897-2.894-1.897h-5.599c-1.803 0-3.084.474-3.084 1.992 0 2.658 3.131 1.139 3.131 4.461v22.584c0 2.847-3.273.664-3.273 4.175 0 1.044.664 1.519 2.372 1.519h10.438c2.705 0 3.322-.475 4.555-3.939l5.124-14.329 6.121 16.275c.569 1.566 1.423 1.993 3.226 1.993h8.873c2.894 0 3.463-.76 3.463-2.136 0-2.514-3.226-1.281-3.226-3.273z" fill="#fff" transform="translate(363.4568 121.0937)"/><path d="m0 0c0-2.562 2.515-1.423 2.515-3.891 0-1.186-.617-1.897-3.037-1.897h-10.343c-2.42 0-3.037.711-3.037 1.897 0 2.468 2.515 1.329 2.515 3.891v18.03h-.095l-6.168-17.413c-.522-1.471-1.518-1.898-4.555-1.898-2.088 0-3.369.143-4.27 2.372l-6.358 16.275h-.095v-16.701c0-2.942 3.701-2.088 3.701-4.556 0-1.233-.902-1.897-2.894-1.897h-5.599c-1.803 0-3.084.474-3.084 1.992 0 2.658 3.131 1.139 3.131 4.461v22.584c0 2.847-3.273.664-3.273 4.175 0 1.044.664 1.519 2.372 1.519h10.438c2.705 0 3.322-.475 4.555-3.939l5.124-14.329 6.121 16.275c.569 1.566 1.423 1.993 3.226 1.993h8.873c2.894 0 3.463-.76 3.463-2.136 0-2.514-3.226-1.281-3.226-3.273z" fill="none" stroke="#000" stroke-miterlimit="10" stroke-width="1.444" transform="translate(363.4568 121.0937)"/><path d="m0 0c1.898 0 2.657-.475 2.657-1.756 0-2.514-2.799-1.376-2.799-3.843 0-4.555.522-11.102.522-14.993 0-7.592-1.424-14.898-15.278-14.898-10.486 0-15.42 4.08-15.42 15.61 0 4.175.616 11.482.616 14.376 0 2.515-2.419 1.423-2.419 3.511 0 1.518.901 1.993 3.795 1.993h9.917c2.562 0 3.131-.664 3.131-1.993 0-1.898-2.752-.996-2.752-3.511 0-.949-.901-10.723-.901-14.613 0-4.982.806-11.103 7.069-11.103 5.125 0 6.975 3.227 6.975 9.964 0 4.365-.617 11.529-.617 14.993 0 3.131-3.321 1.993-3.321 4.507 0 1.187.664 1.756 2.657 1.756z" fill="#fff" transform="translate(400.4185 150.0363)"/><path d="m0 0c1.898 0 2.657-.475 2.657-1.756 0-2.514-2.799-1.376-2.799-3.843 0-4.555.522-11.102.522-14.993 0-7.592-1.424-14.898-15.278-14.898-10.486 0-15.42 4.08-15.42 15.61 0 4.175.616 11.482.616 14.376 0 2.515-2.419 1.423-2.419 3.511 0 1.518.901 1.993 3.795 1.993h9.917c2.562 0 3.131-.664 3.131-1.993 0-1.898-2.752-.996-2.752-3.511 0-.949-.901-10.723-.901-14.613 0-4.982.806-11.103 7.069-11.103 5.125 0 6.975 3.227 6.975 9.964 0 4.365-.617 11.529-.617 14.993 0 3.131-3.321 1.993-3.321 4.507 0 1.187.664 1.756 2.657 1.756z" fill="none" stroke="#000" stroke-miterlimit="10" stroke-width="1.444" transform="translate(400.4185 150.0363)"/><path d="m0 0c-7.639 0-15.658 3.891-15.658 8.446 0 1.708 1.281 3.226 3.037 3.226 4.318 0 3.416-7.022 11.909-7.022 3.985 0 6.073 2.277 6.073 4.365 0 6.453-19.738 1.898-19.738 15.088 0 7.022 6.264 12.146 15.373 12.146 4.935 0 7.449-.854 11.008-2.372 2.515-1.091 2.562-2.04 2.562-6.263 0-1.566-.569-2.847-2.372-2.847-3.559 0-1.898 7.592-9.632 7.592-3.748 0-5.552-1.708-5.552-3.749 0-7.022 19.738-2.941 19.738-15.372 0-8.968-8.872-13.238-16.748-13.238" fill="#fff" transform="translate(417.6403 114.5459)"/><path d="m0 0c-7.639 0-15.658 3.891-15.658 8.446 0 1.708 1.281 3.226 3.037 3.226 4.318 0 3.416-7.022 11.909-7.022 3.985 0 6.073 2.277 6.073 4.365 0 6.453-19.738 1.898-19.738 15.088 0 7.022 6.264 12.146 15.373 12.146 4.935 0 7.449-.854 11.008-2.372 2.515-1.091 2.562-2.04 2.562-6.263 0-1.566-.569-2.847-2.372-2.847-3.559 0-1.898 7.592-9.632 7.592-3.748 0-5.552-1.708-5.552-3.749 0-7.022 19.738-2.941 19.738-15.372 0-8.968-8.872-13.238-16.748-13.238z" fill="none" stroke="#000" stroke-miterlimit="10" stroke-width="1.444" transform="translate(417.6403 114.5459)"/><path d="m0 0c0-2.562 2.515-1.423 2.515-3.891 0-1.186-.617-1.897-3.037-1.897h-10.343c-2.42 0-3.037.711-3.037 1.897 0 2.468 2.515 1.329 2.515 3.891v23.154c0 2.562-2.515 1.424-2.515 3.891 0 1.186.617 1.898 3.037 1.898h10.343c2.42 0 3.037-.712 3.037-1.898 0-2.467-2.515-1.329-2.515-3.891z" fill="#fff" transform="translate(448.8593 121.0937)"/><path d="m0 0c0-2.562 2.515-1.423 2.515-3.891 0-1.186-.617-1.897-3.037-1.897h-10.343c-2.42 0-3.037.711-3.037 1.897 0 2.468 2.515 1.329 2.515 3.891v23.154c0 2.562-2.515 1.424-2.515 3.891 0 1.186.617 1.898 3.037 1.898h10.343c2.42 0 3.037-.712 3.037-1.898 0-2.467-2.515-1.329-2.515-3.891z" fill="none" stroke="#000" stroke-miterlimit="10" stroke-width="1.444" transform="translate(448.8593 121.0937)"/><path d="m0 0c3.891 0 8.445-1.138 11.672-3.368 1.708-1.187 1.946-1.851 1.946-6.643 0-1.471-1.045-2.278-2.515-2.278-3.654 0-2.373 8.019-10.344 8.019-5.978 0-9.109-5.599-9.109-13.333 0-10.011 4.554-13.522 9.963-13.522 6.216 0 8.209 5.694 10.818 5.694 1.187 0 2.04-.996 2.04-2.135 0-4.413-8.445-8.683-13.759-8.683-12.431 0-20.924 7.164-20.924 18.029 0 10.724 10.059 18.22 20.212 18.22" fill="#fff" transform="translate(472.7243 150.7952)"/><path d="m0 0c3.891 0 8.445-1.138 11.672-3.368 1.708-1.187 1.946-1.851 1.946-6.643 0-1.471-1.045-2.278-2.515-2.278-3.654 0-2.373 8.019-10.344 8.019-5.978 0-9.109-5.599-9.109-13.333 0-10.011 4.554-13.522 9.963-13.522 6.216 0 8.209 5.694 10.818 5.694 1.187 0 2.04-.996 2.04-2.135 0-4.413-8.445-8.683-13.759-8.683-12.431 0-20.924 7.164-20.924 18.029 0 10.724 10.059 18.22 20.212 18.22z" fill="none" stroke="#000" stroke-miterlimit="10" stroke-width="1.444" transform="translate(472.7243 150.7952)"/></g><g clip-path="url(#d)"><path d="m0 0c-.417.625-.815 1.138-.815 1.707s.341.929.72.929c1.063 0 2.807-2.75 2.807-3.66 0-.513-.379-.968-.872-.968-.683 0-1.214 1.081-1.84 1.992m-3.813 0c-.416.625-.815 1.138-.815 1.707s.342.929.721.929c1.062 0 2.807-2.75 2.807-3.66 0-.513-.379-.968-.873-.968-.682 0-1.214 1.081-1.84 1.992" transform="translate(100 358.9048)"/><path d="m0 0c0-.664.683-.759 1.138-.759 3.509 0 6.715 4.286 6.715 6.145 0 3.339-4.401 3.471-7.436 3.49 0-4.419-.417-6.638-.417-8.876m.228-3.338c-1.082 0-2.561.171-2.561 1.555 0 1.46.285 3.262.285 4.799 0 2.048-.133 3.831-.133 5.709 0 .36.019.72.037 1.081.039.701.684 1.536 1.443 1.536.075 0 .17-.019.246-.038 3.509-.607 10.28.645 10.28-5.425 0-5.386-4.761-9.217-9.597-9.217" transform="translate(106.8633 350.2939)"/><path d="m0 0c-2.808 0-5.216-2.921-5.216-6.334 0-2.333 1.745-3.699 3.907-3.699 3.111 0 5.197 3.414 5.197 6.297 0 2.389-1.575 3.736-3.888 3.736m-1.783-12.025c-3.111 0-5.822 2.067-5.822 5.52 0 3.926 3.223 8.819 7.756 8.819 4.534 0 6.032-2.845 6.032-6.164 0-4.514-3.509-8.175-7.966-8.175" transform="translate(125.4668 359.5493)"/><path d="m0 0c-.835 0-1.916.133-3.035.133-1.005 0-1.802-.019-2.694-.19-.208-1.005-.265-2.067-.265-3.148 0-.456.227-.475.569-.475 1.29 0 2.446.475 4.628.664.701 0 1.309-.474 1.309-1.138 0-.569-.284-1.176-.968-1.214-1.897-.132-4.931-.739-5.709-.739-.095-.342-.113-.816-.113-2.712 0-.911.626-1.044 1.536-1.044 1.328 0 3.85.664 4.931.664.778 0 1.271-.36 1.328-1.062 0-.702-.436-1.157-1.176-1.271-2.219-.341-3.926-.588-5.728-.588-2.105 0-3.015.455-3.015 3.054 0 3.073.455 6.524.455 9.54 0 .873.417 1.574 1.289 1.745 2.296.095 3.774.342 6.165.342.986 0 2.332-.019 2.332-1.309 0-1.024-.721-1.252-1.839-1.252" transform="translate(141.5469 359.208)"/><path d="m0 0c.531 0 .777-.36 1.176-.683.815-.531 1.65-.929 3.186-.929 1.916 0 4.515.967 4.515 2.446 0 .683-.74 1.006-1.499 1.101-2.275.512-7.984.094-7.984 3.395 0 3.091 5.878 5.196 8.25 5.196 1.669 0 2.826-.815 2.826-2.446 0-.475-.493-.835-.892-.835-.91 0-1.403.873-2.826.873-1.441 0-4.703-1.195-4.703-2.732 0-2.257 9.616.512 9.616-4.362 0-2.712-4.154-4.856-7.037-4.856-1.176 0-5.443.645-5.443 2.827 0 .512.209 1.005.815 1.005" transform="translate(144.9951 350.9956)"/><path d="m0 0c-.986 0-1.973 4.571-2.143 5.368-.19.91-.303 2.541-.74 2.579-.512 0-1.934-4.078-2.997-6.619-.322-.778-.986-1.233-1.46-1.233-.36 0-.682.265-.93 1.119-.644 2.257-1.137 4.078-1.592 5.994-.417 1.763-.892 5.044-.892 5.765 0 .702.607 1.081 1.271 1.081.474 0 .986-.227 1.119-.739.493-1.821.512-6.582 1.517-8.118.399.436 1.726 2.902 2.314 4.969.398 1.423.853 3.755 2.181 3.755.816 0 1.309-.549 1.309-1.555.057-.967.246-1.991.322-2.75.209-1.953.683-3.66 1.196-5.406 1.27 2.03 1.421 4.61 2.162 6.848.094.284.72 3.793 2.238 3.793.645 0 1.194-.455 1.194-1.1 0-.607-.91-2.788-1.157-3.433-.796-2.087-1.043-4.533-2.067-6.714-.607-1.271-1.289-3.604-2.845-3.604" transform="translate(174.9385 347.1831)"/><path d="m0 0c0-1.631.02-3.395.02-5.386 0-.74-.418-1.84-1.556-1.84-.588 0-.797.36-.797.967l.057 6.07c-1.65-.418-3.319-.494-4.969-1.12 0-1.308.018-2.712.018-4.248 0-.74-.417-1.84-1.554-1.84-.588 0-.797.36-.797.967.057 5.046.057 7.89.057 11.096 0 1.499.057 2.731 1.213 2.731.968 0 1.12-1.403 1.139-2.257-.058-1.347-.076-2.693-.076-4.135.948.076 3.66.835 4.969.949v2.883c0 1.498.057 2.731 1.214 2.731.967 0 1.119-1.403 1.138-2.257-.056-1.707-.076-3.414-.076-5.311" transform="translate(192.0801 354.2007)"/><path d="m0 0c1.176.114 2.503.228 3.736.36-.265 1.081-.549 2.125-.873 3.016-.17.475-.417.967-.625.967-.152 0-.38-.436-.645-.91-.531-.967-1.081-2.219-1.593-3.433m2.275 8.573c.475 0 .873-.342 1.158-.986 1.213-2.788 3.755-9.085 3.755-11.873 0-.626-.265-1.195-.986-1.366-.626 0-1.062.512-1.366 1.574-.228.759-.417 1.594-.626 2.447-.606-.095-1.214-.171-1.802-.246-.853-.114-2.219-.209-3.281-.342l-.379-.986c-.455-1.138-.892-3.054-1.821-3.054-.701 0-1.233.493-1.233 1.195 0 1.745 4.23 10.337 5.387 12.632.322.663.568 1.005 1.194 1.005" transform="translate(197.749 353.1196)"/><path d="m0 0c.075-.626.095-1.593.095-2.636 0-1.252-.038-2.599-.057-3.452-.038-1.29-.058-2.239-.152-3.433-.075-.835-.208-1.992-1.309-1.992-1.081 0-1.138.626-1.138 1.442 0 .569.076 1.156.095 1.593.038 1.1.095 2.067.095 3.167 0 1.062-.133 3.661-.133 5.026 0 .228-.189.266-.588.266-.55 0-1.991-.057-2.542-.057-.625 0-1.289.379-1.289 1.062 0 .854 1.1 1.176 1.915 1.176.892 0 2.295-.095 4.002-.095 1.594 0 2.808.323 4.06.323.796 0 1.744-.038 1.744-.987 0-1.574-2.352-1.214-3.3-1.327-.342-.019-1.232-.038-1.498-.076" transform="translate(210.8525 358.7529)"/><path d="m0 0c0-1.631.019-3.395.019-5.387 0-.739-.417-1.84-1.555-1.84-.588 0-.797.361-.797.968.057 5.045.057 7.89.057 11.095 0 1.499.057 2.731 1.214 2.731.967 0 1.119-1.403 1.138-2.256-.057-1.707-.076-3.415-.076-5.311" transform="translate(106.8525 333.1279)"/><path d="m0 0c.075-.626.095-1.593.095-2.636 0-1.252-.038-2.599-.057-3.452-.038-1.29-.058-2.239-.152-3.433-.075-.835-.208-1.992-1.309-1.992-1.081 0-1.138.626-1.138 1.442 0 .569.076 1.156.095 1.593.038 1.1.095 2.067.095 3.167 0 1.062-.133 3.661-.133 5.026 0 .228-.189.266-.588.266-.55 0-1.991-.057-2.542-.057-.625 0-1.289.379-1.289 1.062 0 .854 1.1 1.176 1.915 1.176.892 0 2.295-.095 4.002-.095 1.594 0 2.808.323 4.06.323.796 0 1.744-.038 1.744-.987 0-1.574-2.352-1.214-3.3-1.327-.342-.019-1.232-.038-1.498-.076" transform="translate(115.2539 337.8506)"/><path d="m0 0c.531 0 .777-.36 1.176-.683.815-.531 1.65-.929 3.186-.929 1.916 0 4.515.967 4.515 2.446 0 .683-.74 1.006-1.499 1.101-2.275.512-7.984.094-7.984 3.395 0 3.091 5.878 5.196 8.25 5.196 1.669 0 2.826-.815 2.826-2.446 0-.475-.493-.835-.892-.835-.91 0-1.403.873-2.826.873-1.441 0-4.703-1.195-4.703-2.732 0-2.257 9.616.512 9.616-4.362 0-2.712-4.154-4.856-7.037-4.856-1.176 0-5.443.645-5.443 2.827 0 .512.209 1.005.815 1.005" transform="translate(128.2031 330.0933)"/><path d="m0 0c1.176.114 2.503.228 3.736.36-.265 1.081-.549 2.125-.873 3.016-.17.475-.417.967-.625.967-.152 0-.38-.436-.645-.91-.531-.967-1.081-2.219-1.593-3.433m2.275 8.573c.475 0 .873-.342 1.158-.986 1.213-2.788 3.755-9.085 3.755-11.873 0-.626-.265-1.195-.986-1.366-.626 0-1.062.512-1.366 1.574-.228.759-.417 1.594-.626 2.447-.606-.095-1.214-.171-1.802-.246-.853-.114-2.219-.209-3.281-.342l-.379-.986c-.455-1.138-.892-3.054-1.821-3.054-.701 0-1.233.493-1.233 1.195 0 1.745 4.23 10.337 5.387 12.632.322.663.568 1.005 1.194 1.005" transform="translate(145.042 332.2173)"/><path d="m0 0c-.475-.815-.835-1.29-1.897-1.29-.341 0-.588.133-.664.513 0 1.251 1.043 2.276 1.555 3.299.095.209.475.873.93 1.688-1.689 2.789-3.471 6.089-5.121 7.379-.266.208-.38.455-.38.777 0 .57.474 1.1 1.024 1.1 1.214 0 2.106-1.024 2.846-2.01.322-.455 1.327-2.618 2.883-5.026l1.214 2.105c.568.702 2.105 4.894 3.547 4.894.549 0 1.061-.475 1.061-1.063 0-.626-1.119-2.105-1.65-2.883-1.271-1.896-4.381-7.814-5.348-9.483" transform="translate(156.3633 327.4946)"/><path d="m0 0c.531 0 .777-.36 1.176-.683.815-.531 1.65-.929 3.186-.929 1.916 0 4.515.967 4.515 2.446 0 .683-.74 1.006-1.499 1.101-2.275.512-7.984.094-7.984 3.395 0 3.091 5.878 5.196 8.25 5.196 1.669 0 2.826-.815 2.826-2.446 0-.475-.493-.835-.892-.835-.91 0-1.403.873-2.826.873-1.441 0-4.703-1.195-4.703-2.732 0-2.257 9.616.512 9.616-4.362 0-2.712-4.154-4.856-7.037-4.856-1.176 0-5.443.645-5.443 2.827 0 .512.209 1.005.815 1.005" transform="translate(163.9277 330.0933)"/><path d="m0 0c.815 2.484-.38 3.945-2.295 3.945-3.186 0-6.791-2.352-7.909-5.766-.721-2.219 1.005-3.148 2.503-3.148 2.826 0 6.657 1.726 7.701 4.969m-8.593-7.928c-3.603 0-5.613 2.541-4.362 6.373 1.556 4.779 7.056 8.421 11.532 8.421 3.49 0 5.595-2.56 4.23-6.752-1.84-5.709-9.105-8.042-11.4-8.042" transform="translate(197.665 334.0762)"/><path d="m0 0c-.379-.967-.797-2.048-1.062-2.883-.152-.455-.265-.891-.379-1.328-.133-.474-.304-1.043-.474-1.574-.323-.986-.986-2.048-2.22-2.048-.967 0-1.232.493-.701 2.086.455 1.403 1.119 2.807 1.631 4.381.531 1.65 1.043 3.301 1.556 5.045.113.418.227.93.378 1.366.209.683.967 1.46 1.784 1.46 1.782 0 1.649-2.863 1.991-4.115.379-1.878 1.878-5.766 2.637-5.747.056 0 .246.569.493 1.29.417 1.308.739 2.598 1.137 3.944.361 1.195.665 2.713.929 3.528.247.797 1.139 1.783 2.049 1.783 1.365 0 .948-1.555.531-2.845-.436-1.308-.948-2.617-1.403-4.021-.588-1.763-1.024-3.528-1.669-5.5-.456-1.404-1.119-2.2-2.485-2.2-1.65 0-3.964 4.779-4.723 7.378" transform="translate(204.6973 334.1143)"/><path d="m0 0c-.551 0-1.688.038-2.333.057l-1.745-5.368c-.948-2.902-2.029-6.164-4.021-6.164-.645 0-1.062.417-.835 1.081.816 2.523 1.859 5.064 2.77 7.909.36 1.119.721 2.181.777 2.409-.873-.057-2.067-.057-2.466-.057-.948 0-2.218.303-1.839 1.498.322.968 1.346 1.461 2.181 1.461.55 0 1.119-.076 1.726-.076 2.313 0 5.178.189 7.625.189.721 0 1.422-.53 1.156-1.365-.435-1.309-1.725-1.574-2.996-1.574" transform="translate(139.5879 316.6074)"/><path d="m0 0c-.284-.872-.55-1.783-.872-2.75-.266-.815-1.138-2.049-2.446-2.049-.817 0-.892.455-.646 1.252l1.689 5.178c-1.367-.303-2.732-.399-4.155-.854-.739-2.237-.948-2.939-1.175-3.679-.285-.834-1.157-2.048-2.485-2.048-.797 0-.93.455-.664 1.232 1.574 4.686 2.428 7.303 3.396 10.28.511 1.575.986 2.883 2.389 2.883 1.214 0 .91-1.536.607-2.465-.417-1.252-.74-2.068-1.157-3.395 1.347.171 2.731.606 4.135.777l.759 2.352c.53 1.594 1.023 2.883 2.428 2.883 1.214 0 .91-1.517.606-2.447-.55-1.592-1.099-3.148-2.409-7.15" transform="translate(150.4902 309.7412)"/><path d="m0 0c-.759 0-1.707.133-2.769.133-.796 0-1.479 0-2.238-.133-.436-.854-.759-1.726-1.043-2.617-.019-.095.057-.095.17-.095 1.044 0 3.472.626 4.439.626.853 0 1.403-.588 1.138-1.403-.209-.684-.835-1.423-1.707-1.48-1.707-.133-4.647-.683-5.254-.683-.132-.303-.285-.796-.74-2.162-.171-.55.266-.607.892-.607 1.119 0 3.623.607 4.76.607.93 0 1.442-.436 1.158-1.29-.285-.891-.987-1.441-1.897-1.574-2.181-.342-3.812-.551-5.539-.551-2.181 0-2.977.475-2.105 3.187.929 2.826 2.39 6.051 3.3 8.839.323.986 1.063 1.877 2.086 1.953 2.125.171 3.585.323 5.899.323 1.062 0 2.504-.019 2.011-1.555-.399-1.234-1.309-1.518-2.561-1.518" transform="translate(162.6641 316.2656)"/><path d="m0 0c-.152-.568-.38-1.327-.626-2.105-.93-2.845-1.518-4.552-2.276-6.411-.361-.91-.911-2.162-2.276-2.162-1.328 0-1.157.74-.853 1.688.455 1.385 1.081 2.751 1.631 4.4.303.948.967 3.319 1.365 4.628-.057-.113-1.953-.133-2.579-.133-.759 0-1.404.475-1.119 1.347.322 1.043 1.669 1.423 2.579 1.423.853 0 2.105-.076 3.699-.076 1.422 0 2.617.303 3.85.303.891 0 1.954-.057 1.555-1.271-.474-1.46-2.219-1.573-3.357-1.573-.512 0-1.005-.02-1.593-.058" transform="translate(178.876 315.8672)"/><path d="m0 0c-.266-.854-.55-1.764-.854-2.731-.284-.834-1.156-2.048-2.484-2.048-.797 0-.93.455-.664 1.232 1.556 4.686 2.409 7.303 3.376 10.28.513 1.575 1.006 2.883 2.409 2.883 1.214 0 .91-1.517.607-2.465-.512-1.575-1.081-3.149-2.39-7.151" transform="translate(185.5107 309.5703)"/><path d="m0 0c-.417-1.044-.872-2.276-1.119-3.073-.304-.91-.493-1.782-.835-2.826-.303-.967-.948-2.01-2.162-2.01-.948 0-1.214.493-.701 2.048.511 1.612 1.554 4.154 2.996 8.516.209.645.303 1.46.589 2.352.208.663.966 1.441 1.763 1.441 1.327 0 1.613-1.953 1.802-3.281.189-1.347 1.29-6.184 2.067-6.184.361 1.139 1.498 5.216 2.257 7.55.322 1.005.872 2.029 2.03 2.029 1.137 0 .72-1.878.152-3.661-.38-1.175-.854-2.465-.986-2.844-.57-1.745-.912-3.263-1.48-5.008-.436-1.384-1.101-2.143-2.428-2.143-1.688 0-3.414 4.609-3.945 7.094" transform="translate(191.541 312.7764)"/><path d="m0 0c-.228-.739-1.423-4.344-2.808-4.344-1.346 0-1.213 1.063-.682 2.713.702 2.162 1.214 3.376 1.934 5.614.417 1.252.949 2.067 2.314 2.067 1.044 0 .986-.91.683-1.859-.493-1.536-.835-2.333-1.441-4.191m-2.295-7.302c-.304-.949-1.479-1.897-2.428-1.897-.816 0-1.252.778-.986 1.594.322.986 1.46 1.953 2.428 1.953.967 0 1.27-.796.986-1.65" transform="translate(205.5742 314.2363)"/><path d="m0 0c-.228-.739-1.423-4.344-2.808-4.344-1.346 0-1.213 1.063-.682 2.713.702 2.162 1.214 3.376 1.934 5.614.417 1.252.949 2.067 2.314 2.067 1.044 0 .986-.91.683-1.859-.493-1.536-.835-2.333-1.441-4.191m-2.295-7.302c-.304-.949-1.479-1.897-2.428-1.897-.816 0-1.252.778-.986 1.594.322.986 1.46 1.953 2.428 1.953.967 0 1.27-.796.986-1.65" transform="translate(211.793 314.2363)"/><path d="m0 0c.303.929 3.034 3.736 4.153 3.736.55 0 .872-.474.626-1.214-.171-.569-.664-1.024-1.175-1.574-.987-1.081-2.201-2.2-2.845-2.2-.646 0-.968.588-.759 1.252m-3.832 0c.304.929 3.035 3.736 4.154 3.736.55 0 .872-.474.626-1.214-.171-.569-.664-1.024-1.176-1.574-.986-1.081-2.2-2.2-2.845-2.2s-.967.588-.759 1.252" transform="translate(218.2402 316.1523)"/></g></g></svg>